<svg xmlns="http://www.w3.org/2000/svg" viewBox="0 0 512 512" style="enable-background:new 0 0 512 512" xml:space="preserve"><path style="fill:#002e35" d="M94.316 439.242H51.2c-5.953 0-10.779-4.826-10.779-10.779v-32.337h64.674v32.337c0 5.953-4.826 10.779-10.779 10.779zm377.263-10.779v-32.337h-64.674v32.337c0 5.953 4.826 10.779 10.779 10.779H460.8c5.953 0 10.779-4.826 10.779-10.779z"/><path style="fill:#f93100" d="M202.105 83.537v32.337H83.537V83.537c0-5.953 4.826-10.779 10.779-10.779h97.011c5.953 0 10.778 4.826 10.778 10.779zm215.579-10.779h-97.011c-5.953 0-10.779 4.826-10.779 10.779v32.337h118.568V83.537c.001-5.953-4.825-10.779-10.778-10.779z"/><path style="fill:#004859" d="M503.916 126.653v258.695c0 11.906-9.651 21.558-21.558 21.558H29.642c-11.906 0-21.558-9.651-21.558-21.558V126.653c0-11.906 9.651-21.558 21.558-21.558h452.716c11.906 0 21.558 9.651 21.558 21.558z"/><path style="fill:#007dbc" d="M8.084 256V126.653c0-11.906 9.651-21.558 21.558-21.558h452.716c11.906 0 21.558 9.651 21.558 21.558V256H8.084z"/><path style="fill:#79b7ac" d="M234.442 256c0 50.601-41.02 91.621-91.621 91.621S51.2 306.601 51.2 256s41.02-91.621 91.621-91.621 91.621 41.02 91.621 91.621zm134.737-91.621c-50.601 0-91.621 41.02-91.621 91.621s41.02 91.621 91.621 91.621S460.8 306.601 460.8 256s-41.02-91.621-91.621-91.621z"/><path style="fill:#aee5df" d="M227.491 220.968c-13.759 33.216-46.479 56.589-84.67 56.589s-70.911-23.373-84.67-56.589c13.759-33.216 46.479-56.589 84.67-56.589s70.912 23.373 84.67 56.589zm141.688-56.589c-38.191 0-70.911 23.373-84.67 56.589 13.759 33.216 46.479 56.589 84.67 56.589s70.911-23.373 84.67-56.589c-13.759-33.216-46.479-56.589-84.67-56.589z"/><path style="fill:#a50000" d="M396.126 256c0 14.882-12.065 26.947-26.947 26.947S342.232 270.882 342.232 256s12.065-26.947 26.947-26.947 26.947 12.064 26.947 26.947zm-253.305-26.947c-14.882 0-26.947 12.065-26.947 26.947s12.065 26.947 26.947 26.947c14.883 0 26.947-12.065 26.947-26.947s-12.064-26.947-26.947-26.947z"/><path d="M482.358 97.011H29.642C13.297 97.011 0 110.309 0 126.653v258.695c0 16.344 13.297 29.642 29.642 29.642h2.695v13.474c0 10.401 8.463 18.863 18.863 18.863h43.116c10.401 0 18.863-8.463 18.863-18.863V414.99h285.642v13.474c0 10.401 8.463 18.863 18.863 18.863H460.8c10.401 0 18.863-8.463 18.863-18.863V414.99h2.695c16.344 0 29.642-13.298 29.642-29.642V126.653c0-16.344-13.298-29.642-29.642-29.642zM97.011 428.463a2.698 2.698 0 0 1-2.695 2.695H51.2a2.698 2.698 0 0 1-2.695-2.695v-13.474H97.01v13.474zm366.484 0a2.697 2.697 0 0 1-2.695 2.695h-43.116a2.697 2.697 0 0 1-2.695-2.695v-13.474h48.505v13.474zm32.337-43.116c0 7.43-6.044 13.474-13.474 13.474H29.642c-7.43 0-13.474-6.044-13.474-13.474V126.653c0-7.43 6.044-13.474 13.474-13.474h452.716c7.43 0 13.474 6.044 13.474 13.474v258.694zM75.453 83.537c0-10.401 8.463-18.863 18.863-18.863h97.011c10.401 0 18.863 8.463 18.863 18.863a8.084 8.084 0 0 1-8.084 8.084 8.083 8.083 0 0 1-8.084-8.084 2.698 2.698 0 0 0-2.695-2.695H94.316a2.698 2.698 0 0 0-2.695 2.695c0 4.466-3.62 8.084-8.084 8.084s-8.084-3.618-8.084-8.084zm226.358 0c0-10.401 8.463-18.863 18.863-18.863h97.011c10.401 0 18.863 8.463 18.863 18.863 0 4.466-3.618 8.084-8.084 8.084s-8.084-3.618-8.084-8.084a2.697 2.697 0 0 0-2.695-2.695h-97.011a2.697 2.697 0 0 0-2.695 2.695c0 4.466-3.618 8.084-8.084 8.084s-8.084-3.618-8.084-8.084zm-79.196 112.67c13.025 17.358 19.911 38.034 19.911 59.793 0 54.978-44.727 99.705-99.705 99.705S43.116 310.978 43.116 256c0-21.759 6.886-42.435 19.911-59.793 12.592-16.779 30.517-29.396 50.471-35.528 4.267-1.316 8.79 1.084 10.103 5.353a8.084 8.084 0 0 1-5.353 10.102C82.98 186.971 59.284 219.066 59.284 256c0 46.062 37.475 83.537 83.537 83.537s83.537-37.475 83.537-83.537c0-36.934-23.695-69.029-58.964-79.867a8.084 8.084 0 0 1-5.353-10.102c1.312-4.268 5.835-6.668 10.103-5.353 19.954 6.133 37.879 18.751 50.471 35.529zM107.789 256c0 19.317 15.716 35.032 35.032 35.032s35.032-15.715 35.032-35.032c0-16.534-11.517-30.419-26.947-34.08v-84.489a8.084 8.084 0 0 0-8.084-8.084 8.083 8.083 0 0 0-8.084 8.084v84.489c-15.431 3.661-26.949 17.546-26.949 34.08zm53.895 0c0 10.401-8.463 18.863-18.863 18.863S123.958 266.4 123.958 256c0-10.401 8.463-18.863 18.863-18.863s18.863 8.462 18.863 18.863zm-80.572-8.084c4.465 0 8.084 3.618 8.084 8.084s-3.62 8.084-8.084 8.084h-1.078c-4.465 0-8.084-3.618-8.084-8.084s3.62-8.084 8.084-8.084h1.078zm123.419 16.168c-4.465 0-8.084-3.618-8.084-8.084s3.62-8.084 8.084-8.084h1.078c4.465 0 8.084 3.618 8.084 8.084s-3.62 8.084-8.084 8.084h-1.078zm-99.632 29.831a8.083 8.083 0 0 1 .008 11.432l-.762.763a8.06 8.06 0 0 1-5.72 2.371 8.083 8.083 0 0 1-5.721-13.796l.762-.763a8.083 8.083 0 0 1 11.433-.007zm75.845-75.83a8.083 8.083 0 0 1-.008-11.432l.762-.763a8.083 8.083 0 0 1 11.433-.008 8.083 8.083 0 0 1 .008 11.432l-.762.763a8.06 8.06 0 0 1-5.72 2.371 8.045 8.045 0 0 1-5.713-2.363zm-75.845 0a8.058 8.058 0 0 1-5.713 2.364 8.057 8.057 0 0 1-5.72-2.371l-.762-.763a8.083 8.083 0 0 1 .008-11.432 8.084 8.084 0 0 1 11.433.008l.762.763a8.083 8.083 0 0 1-.008 11.431zm75.845 75.83a8.084 8.084 0 0 1 11.433.008l.762.763a8.083 8.083 0 0 1-5.721 13.796 8.057 8.057 0 0 1-5.72-2.371l-.762-.763a8.084 8.084 0 0 1 .008-11.433zm-37.923 12.746a8.083 8.083 0 0 1 8.084 8.084v1.078a8.084 8.084 0 0 1-8.084 8.084 8.083 8.083 0 0 1-8.084-8.084v-1.078a8.084 8.084 0 0 1 8.084-8.084zm306.151-110.454c13.026 17.358 19.912 38.034 19.912 59.793 0 54.978-44.727 99.705-99.705 99.705S269.474 310.978 269.474 256c0-21.759 6.886-42.435 19.912-59.793 12.592-16.779 30.517-29.396 50.471-35.528a8.079 8.079 0 0 1 10.102 5.353 8.084 8.084 0 0 1-5.353 10.102c-35.269 10.837-58.964 42.933-58.964 79.867 0 46.062 37.475 83.537 83.537 83.537s83.537-37.475 83.537-83.537c0-36.934-23.695-69.029-58.964-79.867a8.084 8.084 0 0 1 4.749-15.455c19.955 6.132 37.88 18.75 50.471 35.528zM334.147 256c0 19.317 15.715 35.032 35.032 35.032 19.317 0 35.032-15.715 35.032-35.032 0-16.534-11.517-30.419-26.947-34.08v-84.489c0-4.466-3.618-8.084-8.084-8.084s-8.084 3.618-8.084 8.084v84.489c-15.431 3.661-26.949 17.546-26.949 34.08zm53.895 0c0 10.401-8.463 18.863-18.863 18.863-10.401 0-18.863-8.463-18.863-18.863 0-10.401 8.463-18.863 18.863-18.863 10.401 0 18.863 8.462 18.863 18.863zm-80.573-8.084c4.466 0 8.084 3.618 8.084 8.084s-3.618 8.084-8.084 8.084h-1.078c-4.466 0-8.084-3.618-8.084-8.084s3.618-8.084 8.084-8.084h1.078zm123.419 16.168c-4.466 0-8.084-3.618-8.084-8.084s3.618-8.084 8.084-8.084h1.078c4.466 0 8.084 3.618 8.084 8.084s-3.618 8.084-8.084 8.084h-1.078zm-99.627 29.834a8.085 8.085 0 0 1 0 11.433l-.763.763c-1.579 1.578-3.649 2.367-5.717 2.367s-4.138-.789-5.717-2.367a8.085 8.085 0 0 1 0-11.433l.763-.763a8.088 8.088 0 0 1 11.434 0zm75.836-75.836a8.085 8.085 0 0 1 0-11.433l.763-.763a8.085 8.085 0 0 1 11.433 11.433l-.763.763c-1.579 1.578-3.649 2.367-5.717 2.367s-4.137-.789-5.716-2.367zm-75.836 0c-1.579 1.578-3.649 2.367-5.717 2.367s-4.138-.789-5.717-2.367l-.763-.763a8.085 8.085 0 0 1 11.433-11.433l.763.763a8.084 8.084 0 0 1 .001 11.433zm75.836 75.836a8.086 8.086 0 0 1 11.433 0l.763.763a8.085 8.085 0 1 1-11.434 11.433l-.763-.763a8.086 8.086 0 0 1 .001-11.433zm-37.918 12.743a8.082 8.082 0 0 1 8.084 8.084v1.078c0 4.466-3.618 8.084-8.084 8.084s-8.084-3.618-8.084-8.084v-1.078a8.083 8.083 0 0 1 8.084-8.084z"/></svg>