<svg xmlns="http://www.w3.org/2000/svg" viewBox="0 0 470 470" style="enable-background:new 0 0 470 470" xml:space="preserve"><path style="fill:#185f8d" d="M274.314 430H131v25h208v-25h-34.686a7.5 7.5 0 0 1-7.5-7.5h-15a7.5 7.5 0 0 1-7.5 7.5z"/><path style="fill:#274b6d" d="m293.62 369-13.81-120.519h-89.62L176.381 369z"/><path style="fill:#185f8d" d="M187.71 108.354c-1.944 2.163-2.83 5.087-2.493 8.233l5.74 53.595c.028.266.043.532.043.799v32.5h88v-25h-65.5c-4.143 0-7.5-3.358-7.5-7.5s3.357-7.5 7.5-7.5h66.261l5.022-46.894c.337-3.146-.548-6.069-2.492-8.232-1.943-2.164-4.757-3.355-7.921-3.355h-78.74c-3.164 0-5.977 1.191-7.92 3.354z"/><path style="fill:#6da8d6" d="M274.314 415a7.5 7.5 0 0 1 7.5 7.5h15a7.5 7.5 0 0 1 7.5-7.5h20.234l-4.605-17.242C317.985 390.429 309.614 384 302.028 384H167.993c-7.606 0-15.977 6.429-17.935 13.758L145.453 415h128.861zM183.5 233.481h103c4.136 0 7.5-3.364 7.5-7.5s-3.364-7.5-7.5-7.5h-103c-4.136 0-7.5 3.364-7.5 7.5s3.364 7.5 7.5 7.5zM242.5 90v-7.5c0-12.407 10.094-22.5 22.5-22.5h7.5V45H265c-12.406 0-22.5-10.093-22.5-22.5V15h-15v7.5c0 12.407-10.094 22.5-22.5 22.5h-7.5v15h7.5c12.406 0 22.5 10.093 22.5 22.5V90h15z"/><path style="fill:#082947" d="M346.5 415h-6.426l-5.639-21.113c-3.14-11.754-13.733-21.361-25.627-24.101l-14.079-122.871C303.076 243.623 309 235.483 309 225.98c0-9.777-6.271-18.114-15-21.21v-33.39l5.697-53.197c.797-7.434-1.423-14.485-6.249-19.856C288.622 92.958 281.847 90 274.37 90H257.5v-7.5c0-4.136 3.364-7.5 7.5-7.5h15a7.5 7.5 0 0 0 7.5-7.5v-30A7.5 7.5 0 0 0 280 30h-15c-4.136 0-7.5-3.364-7.5-7.5v-15A7.5 7.5 0 0 0 250 0h-30a7.5 7.5 0 0 0-7.5 7.5v15c0 4.136-3.364 7.5-7.5 7.5h-15a7.5 7.5 0 0 0-7.5 7.5v30A7.5 7.5 0 0 0 190 75h15c4.136 0 7.5 3.364 7.5 7.5V90h-16.87c-7.476 0-14.251 2.958-19.077 8.328s-7.046 12.422-6.25 19.857L176 171.382v33.39c-8.729 3.096-15 11.433-15 21.21 0 9.503 5.925 17.642 14.271 20.935l-14.078 122.871c-11.894 2.739-22.488 12.347-25.627 24.101L129.927 415H123.5a7.5 7.5 0 0 0-7.5 7.5v40a7.5 7.5 0 0 0 7.5 7.5h223a7.5 7.5 0 0 0 7.5-7.5v-40a7.5 7.5 0 0 0-7.5-7.5zM205 60h-7.5V45h7.5c12.406 0 22.5-10.093 22.5-22.5V15h15v7.5c0 12.407 10.094 22.5 22.5 22.5h7.5v15H265c-12.406 0-22.5 10.093-22.5 22.5V90h-15v-7.5c0-12.407-10.094-22.5-22.5-22.5zm69.37 45c3.164 0 5.978 1.191 7.921 3.355 1.944 2.163 2.829 5.086 2.492 8.232l-5.022 46.894H213.5c-4.143 0-7.5 3.358-7.5 7.5s3.357 7.5 7.5 7.5H279v25h-88v-32.5c0-.267-.015-.533-.043-.799l-5.74-53.595c-.337-3.146.549-6.07 2.493-8.233 1.943-2.163 4.756-3.354 7.92-3.354h78.74zM183.5 218.481h103c4.136 0 7.5 3.364 7.5 7.5s-3.364 7.5-7.5 7.5h-103c-4.136 0-7.5-3.364-7.5-7.5s3.364-7.5 7.5-7.5zm6.69 30h89.621L293.62 369H176.381l13.809-120.519zM167.973 384h134.035c7.606 0 15.977 6.429 17.935 13.758L324.548 415h-20.234c-4.143 0-7.5 3.358-7.5 7.5s3.357 7.5 7.5 7.5H339v25H131v-25h143.314c4.143 0 7.5-3.358 7.5-7.5s-3.357-7.5-7.5-7.5H145.453l4.605-17.242c1.958-7.329 10.329-13.758 17.915-13.758z"/></svg>