<svg version="1.1" id="Layer_1" xmlns="http://www.w3.org/2000/svg" x="0" y="0" viewBox="0 0 512 512" style="enable-background:new 0 0 512 512" xml:space="preserve"><style>.st0{fill:#75b4e2}.st1{fill:#fff}.st4{fill:#17171d}</style><g id="Defense"><path class="st0" d="m223.8 263.2-2.1-2.1h-77.2v56.1c0 14.2 7.1 27.3 19.1 35 2.4 1.5 4.9 2.8 7.5 3.9l5.2 2-.1.1c2.7 1.1 6 2.5 10.3 4.3l63.8 26.6v-99.5l-34.2 18 7.7-44.4zM320.5 231.8l-18.6 18.1h65.6V147.1l-105.9-26.5v75.7l14.3 29z"/><path class="st1" d="m191.5 231.8 44.6-6.5 14.3-29v-75.7l-58.6 14.6v42.2h-11.3V138l-36.1 9v102.7H210l-18.5-17.9zm-11-36.8h11.3v17.5h-11.3V195zM288.2 263.2l7.6 44.4-34.2-18v99.5l63.8-26.6c4.3-1.8 7.6-3.2 10.3-4.3l5.2-2.1c2.6-1 5.2-2.3 7.5-3.9 11.9-7.7 19.1-20.8 19.1-35v-56.1h-77.2l-2.1 2.1z"/><path d="M121.9 129.5v187.7c0 21.9 11 42 29.3 53.9 3.7 2.4 7.6 4.4 11.6 5.9l2.1.9c12.2 5.1 78.2 32.6 91 37.9 13.2-5.5 82.7-34.5 92-38.3h.1l1.1-.4c4-1.6 7.9-3.6 11.6-5.9 18.4-11.9 29.3-32.1 29.3-53.9V129.6L256 96l-134.1 33.5zm256.9 8.8v178.9c0 18-9 34.7-24.2 44.5-1.4.9-2.9 1.8-4.4 2.6l.1.3-5.3 2.1c-2.9 1.1-7.6 3-15.2 6.2L256 403.7 182.2 373c-7.7-3.2-12.3-5.1-15.2-6.2l-5.3-2 .2-.5c-1.5-.8-3-1.6-4.4-2.6-15.2-9.8-24.2-26.4-24.2-44.5V138.3L256 107.6l1.4.3 121.4 30.4z" style="fill:#e85558"/><path style="fill:#fbc749" d="m243.6 235.6-27.9 4 20.2 19.7-4.8 27.7 24.9-13.1 24.9 13.1-4.8-27.7 20.2-19.7-27.8-4-12.5-25.2z"/><path class="st4" d="m256 84.4-145.3 36.3v196.5c0 25.7 12.9 49.4 34.5 63.4 4.3 2.8 8.9 5.1 13.7 7l.1-.1c2.3 1.1 6.5 2.9 14.7 6.3l32.7 13.6c48.6 20.3 48.6 20.3 49.7 20.3h1.1l1-.4c71.9-30 90-37.5 95-39.8l.1.2c4.8-1.8 9.4-4.2 13.6-7 21.6-14 34.5-37.7 34.5-63.4V120.8l-144-36-1.4-.4zm134.1 232.8c0 21.9-11 42-29.3 53.9-3.7 2.4-7.6 4.4-11.6 5.9l-1.1.4h-.1c-9.3 3.9-78.8 32.8-92 38.3-12.8-5.4-78.9-32.9-91-37.9l-2.1-.9c-4-1.6-8-3.6-11.6-5.9-18.4-11.9-29.3-32.1-29.3-53.9V129.4L256 96l134.1 33.5v187.7z"/><path class="st4" d="M133.2 138.3v178.9c0 18 9 34.7 24.2 44.5 1.4.9 2.9 1.8 4.4 2.6l-.2.5 5.3 2c2.9 1.1 7.5 3 15.2 6.2l73.8 30.7 73.8-30.7c7.7-3.2 12.3-5.1 15.2-6.2l5.3-2.1-.1-.3c1.5-.8 3-1.6 4.4-2.6 15.2-9.8 24.2-26.4 24.2-44.5V138.4L257.4 108l-1.4-.3-122.8 30.6zm11.3 8.8 36.1-9v39.4h11.3v-42.2l58.6-14.6v75.7l-14.3 29-44.6 6.5 18.6 18.1h-65.6l-.1-102.9zm105.9 242-63.8-26.6c-4.3-1.8-7.6-3.2-10.3-4.3l.1-.1-5.2-2c-2.6-1-5.2-2.3-7.5-3.9-11.9-7.7-19.1-20.8-19.1-35v-56.1h77.2l2.1 2.1-7.6 44.4 34.2-18v99.5zm117.1-71.9c0 14.2-7.1 27.3-19.1 35-2.4 1.5-4.9 2.8-7.5 3.9l-5.2 2.1c-2.7 1.1-6 2.5-10.3 4.3l-63.8 26.6v-99.5l34.2 18-7.6-44.4 2.1-2.1h77.2v56.1zM261.6 120.6l105.9 26.5v102.7h-65.6l18.6-18.1-44.6-6.5-14.3-29v-75.6zm6.9 115 27.8 4-20.1 19.6 4.8 27.7-25-13-24.9 13.1 4.8-27.7-20.1-19.6 27.8-4 12.4-25.2 12.5 25.1z"/><path class="st4" d="M180.5 195h11.3v17.5h-11.3z"/></g></svg>