<svg xmlns="http://www.w3.org/2000/svg" viewBox="0 0 512 512" style="enable-background:new 0 0 512 512" xml:space="preserve"><path style="fill:#009bde" d="M351.189 34.181c34.976-34.974 91.677-34.976 126.652.001 34.973 34.974 34.973 91.674.001 126.651L160.857 477.819c-34.973 34.975-91.677 34.975-126.65-.001-34.974-34.974-34.975-91.676 0-126.65L351.189 34.181z"/><path style="fill:#61b4e4" d="m351.189 34.181-5.439 5.438 126.654 126.653 5.439-5.439c34.972-34.977 34.972-91.677-.001-126.651-34.974-34.976-91.677-34.975-126.653-.001zM34.205 351.165l5.438-5.438L166.296 472.38l-5.439 5.438c-34.977 34.973-91.677 34.974-126.65-.002-34.977-34.974-34.975-91.675-.002-126.651z"/><path style="opacity:.2;enable-background:new" d="M142.672 406.234c15.929 15.929 41.757 15.929 57.684.001 15.928-15.929 15.927-41.756-.002-57.684l-28.839-28.843-57.683 57.684 28.84 28.842z"/><path style="fill:#333e48" d="M116.234 386.083c-11.233 11.231-18.621.85-21.399-4.552-11.606-22.569-7.951-50.954 10.955-69.863 18.908-18.909 47.295-22.561 69.864-10.956 5.402 2.778 15.783 10.167 4.553 21.397l-63.973 63.974z"/><path style="opacity:.2;enable-background:new" d="M406.259 142.65c15.928 15.928 15.928 41.755 0 57.684-15.928 15.928-41.756 15.927-57.684-.002l-28.842-28.841 57.684-57.684 28.842 28.843z"/><path style="fill:#333e48" d="M386.107 116.209c11.232-11.232.851-18.62-4.552-21.397-22.57-11.606-50.954-7.952-69.863 10.954-18.91 18.909-22.561 47.296-10.956 69.865 2.777 5.403 10.168 15.782 21.398 4.552l63.973-63.974z"/><path style="fill:#fff" d="M238.952 246.875a7.922 7.922 0 0 1-5.621-2.329l-29.695-29.695a7.95 7.95 0 0 1 0-11.243 7.95 7.95 0 0 1 11.243 0l29.695 29.695a7.948 7.948 0 0 1 0 11.242 7.92 7.92 0 0 1-5.622 2.33z"/><path style="fill:#fff" d="M202.225 231.016a7.95 7.95 0 0 1-7.95-7.95 7.95 7.95 0 0 1 7.95-7.95h12.916V202.2a7.95 7.95 0 0 1 7.95-7.95 7.95 7.95 0 0 1 7.95 7.95v20.866a7.95 7.95 0 0 1-7.95 7.95h-20.866zM209.257 310.714a7.922 7.922 0 0 1-5.621-2.329 7.948 7.948 0 0 1 0-11.242l29.695-29.695a7.95 7.95 0 0 1 11.243 0 7.948 7.948 0 0 1 0 11.242l-29.695 29.695a7.924 7.924 0 0 1-5.622 2.329z"/><path style="fill:#fff" d="M223.092 317.747a7.95 7.95 0 0 1-7.95-7.95V296.88h-12.916a7.95 7.95 0 0 1 0-15.9h20.866a7.95 7.95 0 0 1 7.95 7.95v20.867a7.95 7.95 0 0 1-7.95 7.95zM302.791 310.714a7.922 7.922 0 0 1-5.621-2.329l-29.695-29.695a7.948 7.948 0 0 1 0-11.242 7.948 7.948 0 0 1 11.242 0l29.695 29.695a7.948 7.948 0 0 1 0 11.242 7.92 7.92 0 0 1-5.621 2.329z"/><path style="fill:#fff" d="M288.957 317.746a7.95 7.95 0 0 1-7.95-7.95V288.93a7.95 7.95 0 0 1 7.95-7.95h20.867c4.391 0 7.95 3.559 7.95 7.95s-3.559 7.95-7.95 7.95h-12.917v12.916a7.95 7.95 0 0 1-7.95 7.95zM273.096 246.875a7.922 7.922 0 0 1-5.621-2.329 7.948 7.948 0 0 1 0-11.242l29.695-29.695a7.948 7.948 0 0 1 11.242 0 7.95 7.95 0 0 1 0 11.243l-29.695 29.695a7.92 7.92 0 0 1-5.621 2.328z"/><path style="fill:#fff" d="M309.823 231.016h-20.866a7.95 7.95 0 0 1-7.95-7.95v-20.867a7.95 7.95 0 0 1 7.95-7.95 7.95 7.95 0 0 1 7.95 7.95v12.917h12.916a7.95 7.95 0 0 1 0 15.9zM231.88 263.948h-41.993a7.95 7.95 0 0 1-7.95-7.95 7.95 7.95 0 0 1 7.95-7.95h41.993a7.95 7.95 0 0 1 0 15.9z"/><path style="fill:#fff" d="M194.696 278.703a7.95 7.95 0 0 1-5.622-13.571l9.133-9.134-9.133-9.133a7.948 7.948 0 0 1 0-11.242 7.948 7.948 0 0 1 11.242 0l14.754 14.754a7.95 7.95 0 0 1 .001 11.243l-14.754 14.755a7.931 7.931 0 0 1-5.621 2.328zM256.025 330.086a7.95 7.95 0 0 1-7.95-7.95v-41.994a7.95 7.95 0 0 1 15.9 0v41.994a7.95 7.95 0 0 1-7.95 7.95z"/><path style="fill:#fff" d="M270.779 325.276a7.926 7.926 0 0 1-5.622-2.329l-9.132-9.133-9.134 9.133c-3.105 3.105-8.139 3.105-11.243 0s-3.105-8.139 0-11.242l14.755-14.755a7.948 7.948 0 0 1 11.243 0l14.754 14.755a7.95 7.95 0 0 1-5.621 13.571zM322.162 263.948c-.001 0 0 0 0 0h-41.994a7.95 7.95 0 0 1 0-15.9h41.994a7.95 7.95 0 0 1 0 15.9z"/><path style="fill:#fff" d="M317.352 278.702a7.927 7.927 0 0 1-5.621-2.328l-14.756-14.754a7.95 7.95 0 0 1 0-11.244l14.756-14.754a7.951 7.951 0 0 1 11.243 11.243l-9.134 9.133 9.134 9.133a7.95 7.95 0 0 1-5.622 13.571zM256.024 239.804a7.95 7.95 0 0 1-7.95-7.95l.001-41.993a7.95 7.95 0 0 1 7.95-7.95 7.95 7.95 0 0 1 7.95 7.95l-.001 41.993a7.95 7.95 0 0 1-7.95 7.95z"/><path style="fill:#fff" d="M256.026 217.375a7.948 7.948 0 0 1-5.622-2.329l-14.755-14.754a7.948 7.948 0 0 1 0-11.242 7.948 7.948 0 0 1 11.243 0l9.133 9.133 9.132-9.133a7.95 7.95 0 0 1 11.244 11.242l-14.753 14.754a7.962 7.962 0 0 1-5.622 2.329zM256.025 287.422c-17.328 0-31.425-14.097-31.425-31.424s14.097-31.424 31.425-31.424c17.327 0 31.423 14.097 31.423 31.424s-14.097 31.424-31.423 31.424zm0-46.948c-8.561 0-15.525 6.964-15.525 15.524s6.964 15.524 15.525 15.524c8.56 0 15.523-6.964 15.523-15.524 0-8.56-6.964-15.524-15.523-15.524z"/><path style="fill:#1e252b" d="M483.464 28.561C465.047 10.143 440.561 0 414.517 0c-26.044 0-50.53 10.142-68.948 28.56L28.584 345.546C10.168 363.962.024 388.449.024 414.493c.001 26.044 10.143 50.53 28.559 68.947C47 501.857 71.486 512 97.531 512c26.044 0 50.53-10.142 68.946-28.559l316.987-316.987c38.016-38.019 38.015-99.877 0-137.893zm-11.243 126.651L155.235 472.198C139.823 487.611 119.33 496.1 97.533 496.1c-21.799 0-42.292-8.488-57.705-23.903-15.413-15.414-23.902-35.906-23.902-57.704s8.488-42.291 23.902-57.704L356.812 39.802C372.226 24.389 392.719 15.9 414.517 15.9s42.291 8.49 57.704 23.904c31.815 31.816 31.816 83.589 0 115.408zM188.176 325.128c4.908-6.08 5.376-11.56 4.795-15.27-1.007-6.436-5.866-12.194-13.682-16.214-9.543-4.907-20.286-7.501-31.07-7.501-18.151 0-35.216 7.069-48.052 19.905-20.97 20.973-25.954 52.769-12.403 79.12 4.603 8.952 11.268 13.882 18.769 13.882 4.356 0 8.614-1.7 12.702-5.007l17.814 17.815c9.503 9.503 21.982 14.253 34.465 14.253 12.479 0 24.962-4.752 34.463-14.252 19.003-19.004 19.002-49.924-.002-68.927l-17.799-17.804zm-77.564 55.333c-2.121 2.121-3.562 2.687-4.079 2.687-.778 0-2.787-1.67-4.629-5.253-10.38-20.182-6.558-44.538 9.506-60.606 9.833-9.833 22.905-15.248 36.809-15.248 8.266 0 16.495 1.985 23.798 5.741 3.594 1.848 5.125 3.761 5.245 4.531.07.447-.4 1.895-2.678 4.174l-63.972 63.974zm84.123 20.153c-12.803 12.803-33.636 12.804-46.442-.001L130.62 382.94l46.44-46.44 17.672 17.673c12.806 12.804 12.807 33.637.003 46.441zm199.341-281.387c4.909-6.081 5.377-11.562 4.797-15.272-1.008-6.436-5.867-12.194-13.682-16.212-9.542-4.907-20.286-7.501-31.069-7.501-18.15 0-35.215 7.068-48.051 19.903-20.972 20.97-25.956 52.767-12.405 79.121 4.601 8.952 11.268 13.882 18.771 13.882 4.356 0 8.614-1.7 12.702-5.009l17.815 17.815c9.205 9.205 21.444 14.275 34.464 14.275h.001c13.018 0 25.258-5.07 34.463-14.274 19.003-19.004 19.002-49.924-.002-68.927l-17.804-17.801zm-77.563 55.334c-2.12 2.121-3.559 2.686-4.077 2.686-.778-.001-2.788-1.669-4.63-5.252-10.38-20.186-6.559-44.542 9.507-60.607 9.833-9.832 22.905-15.246 36.809-15.246 8.265 0 16.495 1.985 23.798 5.741 3.593 1.847 5.123 3.759 5.244 4.53.07.447-.4 1.895-2.679 4.174l-63.972 63.974zm84.123 20.152c-6.202 6.202-14.449 9.617-23.22 9.617s-17.018-3.416-23.22-9.618l-17.673-17.674 46.44-46.44 17.673 17.673c12.803 12.805 12.804 33.638 0 46.442z"/></svg>