<svg xmlns="http://www.w3.org/2000/svg" viewBox="0 0 64 64"><defs><style>.cls-2{fill:#0095e8}.cls-4,.cls-5,.cls-6{fill:none}.cls-5,.cls-6{stroke:#000;stroke-linecap:round;stroke-linejoin:round}.cls-6{stroke-width:2px}.cls-9{mix-blend-mode:overlay;fill:#fff}</style></defs><g style="isolation:isolate"><g id="Layer_1" data-name="Layer 1"><g id="Vector"><path class="cls-2" d="m21.76 45.89-.5-.24.1-.07a.86.86 0 0 0 .23-1.19.86.86 0 0 0-1.19-.23l-.53.35-.4.28-1.42-.7 1.31-.89.43.21.67.33a.86.86 0 0 0 .74-1.53l-.2-.12.46-.31a.86.86 0 0 0 .23-1.19.86.86 0 0 0-1.19-.23l-.46.31v-.12a.86.86 0 0 0-.92-.79.84.84 0 0 0-.79.91V41.78l-1.32.9-.01-1.59.4-.27.6-.42a.86.86 0 0 0-1-1.4l-.19.14v-.56a.86.86 0 0 0-.92-.79.85.85 0 0 0-.79.92v.55l-.1-.07a.86.86 0 1 0-.75 1.54l.57.27.43.21.12 1.59-1.37-.69v-.48l-.05-.75a.87.87 0 0 0-.9-.68.85.85 0 0 0-.79.8v.23l-.6-.23a.85.85 0 1 0-.74 1.54l.5.25-.1.06a.86.86 0 1 0 1 1.42l.52-.35.4-.27 1.43.69-1.32.89-.47-.23-.67-.32a.86.86 0 0 0-.74 1.53l.22.1-.47.32a.86.86 0 0 0 1 1.41l.46-.31v.12a.85.85 0 0 0 .91.8.87.87 0 0 0 .8-.92V46.62l1.32-.89.12 1.58-.4.27-.62.42a.87.87 0 0 0-.14 1.12.86.86 0 0 0 1.09.28l.2-.13v.55a.86.86 0 1 0 1.71-.12v-.56l.11.06a.86.86 0 0 0 .74-1.55l-.56-.27-.44-.21-.11-1.58 1.43.69v.48l.06.74a.84.84 0 0 0 .89.68.86.86 0 0 0 .8-.8v-.24l.5.24a.85.85 0 0 0 1.06-.38.86.86 0 0 0-.39-1.11zM37 56l-.5-.24.1-.07a.86.86 0 0 0 .23-1.19.85.85 0 0 0-1.19-.23l-.53.35-.4.27-1.42-.69 1.31-.89.43.21.67.32a.86.86 0 0 0 .74-1.53l-.21-.1.46-.31a.86.86 0 0 0 .23-1.19.85.85 0 0 0-1.19-.23l-.46.31v-.12a.86.86 0 1 0-1.71.12V51.9l-1.32.89-.11-1.58.4-.27.61-.42a.85.85 0 0 0-.95-1.4l-.19.14v-.56a.86.86 0 0 0-.92-.79.84.84 0 0 0-.79.91v.56l-.11-.06a.87.87 0 0 0-1.15.4.87.87 0 0 0 .4 1.15l.57.27.43.21.12 1.59-1.43-.7v-1.22a.87.87 0 0 0-.9-.68.85.85 0 0 0-.79.8v.24l-.51-.24a.85.85 0 1 0-.74 1.54l.5.24-.1.07a.85.85 0 0 0-.23 1.19.86.86 0 0 0 1.19.23L28 54l.4-.27 1.43.69-1.32.89-.43-.21-.67-.33a.86.86 0 0 0-.74 1.53l.22.1-.47.31a.86.86 0 0 0 1 1.42l.46-.31V58a.84.84 0 0 0 .91.79.86.86 0 0 0 .8-.91l-.05-.63v-.48l1.32-.89.11 1.58-.39.27-.62.42a.87.87 0 0 0-.14 1.12.86.86 0 0 0 1.09.28l.2-.14v.56a.84.84 0 0 0 .91.79.86.86 0 0 0 .8-.92v-.55h.11a.85.85 0 1 0 .74-1.54l-.56-.27-.44-.21-.11-1.59 1.43.7v.47l.06.75a.86.86 0 0 0 1.7-.12v-.23l.5.24a.84.84 0 0 0 1.14-.4A.85.85 0 0 0 37 56zM53.09 46.29l-.51-.24.1-.07a.85.85 0 0 0 .23-1.19.86.86 0 0 0-1.19-.23l-.52.36-.4.27-1.43-.7 1.32-.89.43.21.67.33a.86.86 0 0 0 .75-1.53l-.21-.11.46-.31A.85.85 0 0 0 53 41a.86.86 0 0 0-1.19-.23l-.46.31V41a.85.85 0 0 0-1.7.12V42.23l-1.31.9-.11-1.59.39-.27.62-.42a.87.87 0 0 0 .14-1.12.86.86 0 0 0-1.09-.29l-.2.13v-.56a.85.85 0 1 0-1.7.13v.55h-.12a.86.86 0 0 0-.75 1.54l.57.27.44.21.11 1.59-1.43-.69v-.48l-.06-.75a.86.86 0 0 0-1.7.12v.23L43 41.4a.86.86 0 0 0-.75 1.54l.5.25-.1.06a.88.88 0 0 0-.23 1.2.85.85 0 0 0 1.19.22l.53-.35.39-.27 1.43.69-1.31.89-.43-.21-.67-.32a.85.85 0 0 0-1 .43.86.86 0 0 0 .3 1.09l.21.1-.46.32a.85.85 0 1 0 1 1.41l.46-.31v.12a.86.86 0 1 0 1.71-.12V47.03l1.32-.89-.09 1.6-.4.27-.61.42a.85.85 0 0 0 .95 1.4l.19-.13v.55a.87.87 0 0 0 .92.8.86.86 0 0 0 .79-.92v-.56l.12.06a.86.86 0 0 0 1.14-.4.84.84 0 0 0-.4-1.14l-.57-.28-.43-.21-.07-1.6 1.42.69v1.22a.85.85 0 0 0 1.69-.12v-.24l.51.25a.86.86 0 0 0 .75-1.55z"/><path d="M60.68 31.65a2.79 2.79 0 0 1-2.36 1.23H5.7a2.81 2.81 0 0 1-2.41-1.31 11.19 11.19 0 0 1-1.66-5.87 10.84 10.84 0 0 1 .19-2.07 11.2 11.2 0 0 1 11-9.17A11.24 11.24 0 0 1 24.07 3.24a10.69 10.69 0 0 1 2.42.27 11.22 11.22 0 0 1 8.4 7.92A11 11 0 0 1 38 11a10.8 10.8 0 0 1 7.61 3.1A9.5 9.5 0 0 1 47 15.73a11 11 0 0 1 15.26 7.9 12 12 0 0 1-1.58 8.02z" style="fill:#cecece"/><path class="cls-4" d="M25.53 7.22A5.61 5.61 0 0 1 30.69 13M34.25 15.2s6.38-3.47 9.66 3.28"/></g><g id="Line"><path class="cls-5" d="m21.76 45.89-.5-.24.1-.07a.86.86 0 0 0 .23-1.19.86.86 0 0 0-1.19-.23l-.53.35-.4.28-1.42-.7 1.31-.89.43.21.67.33h0a.86.86 0 0 0 .74-1.53h0l-.2-.12.46-.31a.86.86 0 0 0 .23-1.19.86.86 0 0 0-1.19-.23l-.46.31v-.12a.86.86 0 0 0-.92-.79.84.84 0 0 0-.79.91V41.78l-1.32.9-.01-1.59.4-.27.6-.42h0a.86.86 0 0 0-1-1.4h0l-.19.14v-.56a.86.86 0 0 0-.92-.79.85.85 0 0 0-.79.92v.55l-.1-.07a.86.86 0 1 0-.75 1.54l.57.27.43.21.12 1.59-1.37-.69v-.48l-.05-.75h0a.87.87 0 0 0-.9-.68.85.85 0 0 0-.79.8h0v.23l-.6-.23a.85.85 0 1 0-.74 1.54l.5.25-.1.06a.86.86 0 1 0 1 1.42l.52-.35.4-.27 1.43.69-1.32.89-.47-.23-.67-.32h0a.86.86 0 0 0-.74 1.53h0l.22.1-.47.32a.86.86 0 0 0 1 1.41l.46-.31v.12a.85.85 0 0 0 .91.8.87.87 0 0 0 .8-.92V46.62l1.32-.89.12 1.58-.4.27-.62.42h0a.87.87 0 0 0-.14 1.12.86.86 0 0 0 1.09.28h0l.2-.13v.55a.86.86 0 1 0 1.71-.12v-.56l.11.06a.86.86 0 0 0 .74-1.55l-.56-.27-.44-.21-.11-1.58 1.43.69v.48l.06.74h0a.84.84 0 0 0 .89.68.86.86 0 0 0 .8-.8h0v-.24l.5.24a.85.85 0 0 0 1.06-.38.86.86 0 0 0-.39-1.11zM37 56l-.5-.24.1-.07a.86.86 0 0 0 .23-1.19.85.85 0 0 0-1.19-.23l-.53.35-.4.27-1.42-.69 1.31-.89.43.21.67.32h0a.86.86 0 0 0 .74-1.53h0l-.21-.1.46-.31a.86.86 0 0 0 .23-1.19.85.85 0 0 0-1.19-.23l-.46.31v-.12a.86.86 0 1 0-1.71.12V51.9l-1.32.89-.11-1.58.4-.27.61-.42h0a.85.85 0 0 0-.95-1.4h0l-.19.14v-.56a.86.86 0 0 0-.92-.79.84.84 0 0 0-.79.91v.56l-.11-.06a.87.87 0 0 0-1.15.4.87.87 0 0 0 .4 1.15l.57.27.43.21.12 1.59-1.43-.7v-1.22h0a.87.87 0 0 0-.9-.68.85.85 0 0 0-.79.8h0v.24l-.51-.24a.85.85 0 1 0-.74 1.54l.5.24-.1.07a.85.85 0 0 0-.23 1.19.86.86 0 0 0 1.19.23L28 54l.4-.27 1.43.69-1.32.89-.43-.21-.67-.33h0a.86.86 0 0 0-.74 1.53h0l.22.1-.47.31a.86.86 0 0 0 1 1.42l.46-.31V58a.84.84 0 0 0 .91.79.86.86 0 0 0 .8-.91l-.05-.63v-.48l1.32-.89.11 1.58-.39.27-.62.42h0a.87.87 0 0 0-.14 1.12.86.86 0 0 0 1.09.28h0l.2-.14v.56a.84.84 0 0 0 .91.79.86.86 0 0 0 .8-.92v-.55h.11a.85.85 0 1 0 .74-1.54l-.56-.27-.44-.21-.11-1.59 1.43.7v.47l.06.75h0a.86.86 0 0 0 1.7-.12h0v-.23l.5.24a.84.84 0 0 0 1.14-.4A.85.85 0 0 0 37 56zM53.09 46.29l-.51-.24.1-.07a.85.85 0 0 0 .23-1.19.86.86 0 0 0-1.19-.23l-.52.36-.4.27-1.43-.7 1.32-.89.43.21.67.33h0a.86.86 0 0 0 .75-1.53h0l-.21-.11.46-.31A.85.85 0 0 0 53 41a.86.86 0 0 0-1.19-.23l-.46.31V41a.85.85 0 0 0-1.7.12V42.23l-1.31.9-.11-1.59.39-.27.62-.42h0a.87.87 0 0 0 .14-1.12.86.86 0 0 0-1.09-.29h0l-.2.13v-.56a.85.85 0 1 0-1.7.13v.55h-.12a.86.86 0 0 0-.75 1.54l.57.27.44.21.11 1.59-1.43-.69v-.48l-.06-.75h0a.86.86 0 0 0-1.7.12h0v.23L43 41.4a.86.86 0 0 0-.75 1.54l.5.25-.1.06a.88.88 0 0 0-.23 1.2.85.85 0 0 0 1.19.22l.53-.35.39-.27 1.43.69-1.31.89-.43-.21-.67-.32h0a.85.85 0 0 0-1 .43.86.86 0 0 0 .3 1.09h0l.21.1-.46.32a.85.85 0 1 0 1 1.41l.46-.31v.12a.86.86 0 1 0 1.71-.12V47.03l1.32-.89-.09 1.6-.4.27-.61.42h0a.85.85 0 0 0 .95 1.4h0l.19-.13v.55a.87.87 0 0 0 .92.8.86.86 0 0 0 .79-.92v-.56l.12.06a.86.86 0 0 0 1.14-.4.84.84 0 0 0-.4-1.14l-.57-.28-.43-.21-.07-1.6 1.42.69v1.22h0a.85.85 0 0 0 1.69-.12h0v-.24l.51.25a.86.86 0 0 0 .75-1.55z"/><path class="cls-6" d="M60.68 31.65s0 0 0 0a2.79 2.79 0 0 1-2.36 1.23H5.7a2.81 2.81 0 0 1-2.41-1.31 11.19 11.19 0 0 1-1.66-5.87 10.84 10.84 0 0 1 .19-2.07 11.2 11.2 0 0 1 11-9.17A11.24 11.24 0 0 1 24.07 3.24a10.69 10.69 0 0 1 2.42.27h0a11.22 11.22 0 0 1 8.4 7.92A11 11 0 0 1 38 11a10.8 10.8 0 0 1 7.61 3.1A9.5 9.5 0 0 1 47 15.73a11 11 0 0 1 15.26 7.9 12 12 0 0 1-1.58 8.02z"/><path class="cls-6" d="M25.53 7.22A5.61 5.61 0 0 1 30.69 13M34.25 15.2s6.38-3.47 9.66 3.28"/></g><g id="Shadow" style="opacity:.25;mix-blend-mode:multiply"><path d="M8.29 31.58a11.2 11.2 0 0 1-1.67-5.88 10.84 10.84 0 0 1 .2-2.07 11.2 11.2 0 0 1 11-9.17 11.21 11.21 0 0 1 8.73-10.92h-.06a10.69 10.69 0 0 0-2.42-.27 11.24 11.24 0 0 0-11.23 11.19 11.2 11.2 0 0 0-11 9.17 10.84 10.84 0 0 0-.2 2.07 11.2 11.2 0 0 0 1.67 5.88 2.81 2.81 0 0 0 2.39 1.31h5a2.81 2.81 0 0 1-2.41-1.31zM45.6 47.05l.38-.26v-3.94l-.71-.34v-.48l-.06-.75a.86.86 0 0 0-1.7.12v.23L43 41.4a.86.86 0 0 0-.75 1.54l.5.25-.1.06a.88.88 0 0 0-.23 1.2.85.85 0 0 0 1.19.22l.53-.35.39-.27 1.43.69-1.31.89-.43-.21-.67-.32a.85.85 0 0 0-1 .43.86.86 0 0 0 .3 1.09l.21.1-.46.32a.85.85 0 1 0 1 1.41l.46-.31v.12a.86.86 0 1 0 1.71-.12v-.63zM29 55.05l-.4.27-.43-.21-.67-.33a.86.86 0 0 0-.74 1.53l.22.1-.47.31a.86.86 0 0 0 1 1.42l.46-.31V58a.84.84 0 0 0 .91.79.42.42 0 0 0 .15 0zM26.66 52.87l-.1.07a.85.85 0 0 0-.23 1.19.86.86 0 0 0 1.19.23L28 54l.4-.27.6.27v-3.34a.86.86 0 0 0-.76-.37.85.85 0 0 0-.79.8v.24l-.51-.24a.85.85 0 1 0-.74 1.54zM13.84 44.88l-.53.35-.43-.23-.67-.32a.86.86 0 0 0-.74 1.53l.22.1-.47.32a.86.86 0 0 0 1 1.41l.46-.31v.12a.85.85 0 0 0 .91.8.9.9 0 0 0 .28-.08zM11.42 42.79l-.1.06a.86.86 0 1 0 1 1.42l.52-.35.4-.27.64.31v-3.1a.86.86 0 0 0-.88-.66.85.85 0 0 0-.79.8v.23l-.55-.23a.85.85 0 1 0-.74 1.54z"/></g><g id="Highligth" style="mix-blend-mode:overlay"><path class="cls-9" d="M51.5 14.76a11.42 11.42 0 0 0-2.51.29 11 11 0 0 1 8.26 8.58 12 12 0 0 1-1.57 8 2.79 2.79 0 0 1-2.36 1.23h5a2.79 2.79 0 0 0 2.36-1.23 12 12 0 0 0 1.57-8 10.93 10.93 0 0 0-10.75-8.87zM19.36 43.21l.43.21.67.33a.86.86 0 0 0 .74-1.53l-.2-.13.46-.31a.86.86 0 0 0 .23-1.19.86.86 0 0 0-1.19-.23l-.46.31v-.12a.84.84 0 0 0-.67-.76zM21.76 45.89l-.5-.24.1-.07a.86.86 0 0 0 .23-1.19.86.86 0 0 0-1.19-.23l-.53.35-.4.28-.11-.06v3.44a.85.85 0 0 0 1.16-.74v-.24l.5.24a.85.85 0 0 0 1.13-.43.86.86 0 0 0-.39-1.11zM37 56l-.5-.24.1-.07a.86.86 0 0 0 .23-1.19.85.85 0 0 0-1.19-.23l-.53.35-.4.27-1.42-.69 1.31-.89.43.21.67.32a.86.86 0 0 0 .74-1.53l-.21-.1.46-.31a.86.86 0 0 0 .23-1.19.85.85 0 0 0-1.19-.23l-.46.31v-.12a.86.86 0 1 0-1.71.12V51.9l-1 .68v3.22l1.33.65v.47l.06.75a.86.86 0 0 0 1.7-.12v-.23l.5.24a.84.84 0 0 0 1.14-.4A.85.85 0 0 0 37 56z"/><path class="cls-9" d="m33.65 57.79-.56-.27-.44-.21v3.13a.88.88 0 0 0 .2-.61v-.55h.11a.85.85 0 1 0 .74-1.54zM53.09 46.29l-.51-.24.1-.07a.85.85 0 0 0 .23-1.19.86.86 0 0 0-1.19-.23l-.52.36-.4.27-1.43-.7 1.32-.89.43.21.67.33a.86.86 0 0 0 .75-1.53l-.21-.11.46-.31A.86.86 0 0 0 53 41a.88.88 0 0 0-1.2-.23l-.46.31V41a.85.85 0 0 0-1.7.12V42.23l-.58.4v3.71l.91.44V48a.85.85 0 0 0 1.69-.12v-.24l.51.25a.86.86 0 0 0 .75-1.55z"/></g></g></g></svg>