<?xml version="1.0" standalone="no"?>
<!DOCTYPE svg PUBLIC "-//W3C//DTD SVG 20010904//EN"
 "http://www.w3.org/TR/2001/REC-SVG-20010904/DTD/svg10.dtd">
<svg version="1.0" xmlns="http://www.w3.org/2000/svg"
 width="700.000000pt" height="700.000000pt" viewBox="0 0 700.000000 700.000000"
 preserveAspectRatio="xMidYMid meet">
<metadata>
Created by potrace 1.14, written by Peter Selinger 2001-2017
</metadata>
<g transform="translate(0.000000,700.000000) scale(0.100000,-0.100000)"
fill="#000000" stroke="none">
<path d="M3250 5979 c-30 -4 -75 -10 -100 -13 -72 -9 -111 -16 -180 -32 -36
-9 -75 -17 -86 -20 -52 -10 -256 -80 -353 -120 -345 -145 -684 -393 -921 -674
-30 -36 -58 -67 -61 -70 -18 -16 -149 -209 -196 -288 -150 -254 -273 -594
-309 -847 -2 -16 -6 -41 -9 -54 -27 -137 -28 -556 0 -723 2 -13 6 -39 9 -58
54 -342 214 -726 428 -1025 39 -55 74 -102 77 -105 3 -3 31 -34 61 -70 113
-134 254 -265 405 -377 120 -88 115 -84 146 -102 13 -8 53 -33 89 -55 210
-128 594 -268 825 -301 23 -3 52 -7 65 -10 70 -14 184 -20 360 -20 218 0 311
8 480 41 806 158 1498 720 1813 1474 65 155 132 372 152 490 3 19 8 42 10 50
2 8 7 40 10 70 4 30 10 82 15 115 8 60 6 477 -3 525 -3 14 -8 48 -12 75 -37
256 -112 498 -225 730 -151 308 -344 562 -601 790 -353 312 -836 533 -1294
591 -22 3 -69 9 -105 14 -79 10 -414 9 -490 -1z m220 -1049 c10 -6 110 -87
222 -181 112 -94 212 -178 223 -187 11 -9 50 -42 85 -72 35 -30 74 -63 85 -72
95 -79 180 -150 235 -197 36 -31 90 -76 120 -101 199 -166 221 -191 214 -240
-12 -76 -56 -100 -181 -100 l-90 0 0 -643 c0 -689 0 -687 -51 -757 -38 -50
-60 -67 -118 -89 -46 -18 -74 -20 -254 -18 l-202 2 1 379 0 379 -29 28 -28 29
-277 0 -277 0 -29 -29 -29 -29 0 -382 0 -381 -202 2 c-234 1 -275 11 -346 80
-77 77 -75 58 -75 786 l0 643 -66 1 c-142 1 -165 9 -196 69 -28 56 -7 92 117
196 51 43 163 137 248 208 85 72 157 133 160 136 3 3 25 21 50 41 25 20 55 45
66 55 12 11 42 35 65 55 24 20 135 114 246 207 111 94 210 175 220 181 23 13
69 14 93 1z"/>
</g>
</svg>
