<svg xmlns="http://www.w3.org/2000/svg" viewBox="0 0 64 64"><defs><style>.cls-11{fill:#fff}</style></defs><g id="_59-Html_Code" data-name="59-Html Code"><path style="fill:#8dd5f6" d="M13 54v7l-2 2H7l-2-2v-7h8z"/><path style="fill:#ffe4c2" d="m9 1 4 8-4-1-4 1 4-8z"/><path style="fill:#ffc247" d="M13 9v45H5V9l4-1 4 1z"/><path d="M63 3v58a2.006 2.006 0 0 1-2 2H19a2.006 2.006 0 0 1-2-2V3a2.006 2.006 0 0 1 2-2h4v30l5-3 5 3V1h28a2.006 2.006 0 0 1 2 2z" style="fill:#dfe1ea"/><path d="M46.6 34c-7.6 0-7.6-2-15.2-2-7.32 0-7.615 1.847-14.4 1.987V61a2.006 2.006 0 0 0 2 2h42a2.006 2.006 0 0 0 2-2V32.022A37.474 37.474 0 0 0 61.8 32c-7.6 0-7.6 2-15.2 2z" style="fill:#bec3d2"/><path d="M36 1.561V33.01a.561.561 0 0 1-.849.481l-3.863-2.318a.561.561 0 0 0-.576 0l-3.863 2.318A.561.561 0 0 1 26 33.01V1.561A.561.561 0 0 1 26.561 1h8.878a.561.561 0 0 1 .561.561z" style="fill:#adb2c7"/><path style="fill:#ff636e" d="M33 1v30l-5-3-5 3V1h10z"/><path d="M9 8 5 9v3.094c3.612.277 5.111 1.111 8 1.579V9z" style="fill:#ffa426"/><path d="M28.394 4A26.628 26.628 0 0 0 23 4.471v7A26.628 26.628 0 0 1 28.394 11a28.241 28.241 0 0 1 4.606.329v-7A28.241 28.241 0 0 0 28.394 4z" style="fill:#ff475a"/><path d="M33 4.329V1H23v3.471A26.628 26.628 0 0 1 28.394 4 28.241 28.241 0 0 1 33 4.329z" style="fill:#fc979e"/><path d="m13.9 8.553-4-8a1.042 1.042 0 0 0-1.79 0l-4 8h.012A.983.983 0 0 0 4 9v47H2V34H0v22a1.959 1.959 0 0 0 2 2h2v3a1 1 0 0 0 .293.707l2 2A1 1 0 0 0 7 64h4a1 1 0 0 0 .707-.293l2-2A1 1 0 0 0 14 61V9a.983.983 0 0 0-.117-.442zM9 3.236 11.133 7.5l-1.891-.47a.968.968 0 0 0-.484 0l-1.891.47zM12 53H6V9.781l3-.75 3 .75zm-1.414 9H7.414L6 60.586V55h6v5.586z"/><path d="M8 12h2v39H8zM61 0H19a3 3 0 0 0-3 3v58a3 3 0 0 0 3 3h42a3 3 0 0 0 3-3V3a3 3 0 0 0-3-3zM24 2h8v27.233l-3.485-2.09a1 1 0 0 0-1.03 0L24 29.233zm38 59a1 1 0 0 1-1 1H19a1 1 0 0 1-1-1V3a1 1 0 0 1 1-1h3v29a1 1 0 0 0 1.515.857L28 29.166l4.485 2.691A1 1 0 0 0 34 31V2h27a1 1 0 0 1 1 1z"/><path d="M58 16a.811.811 0 0 1-.71-.29c-.61-.743-.472-2.689-.31-3.516A1 1 0 0 0 56 11h-2v2h.865a5.866 5.866 0 0 0 .877 3.977 2.717 2.717 0 0 0 1.258.869v.308a2.717 2.717 0 0 0-1.258.869A5.866 5.866 0 0 0 54.865 23H54v2h2a1 1 0 0 0 .98-1.194c-.162-.827-.3-2.773.31-3.516A.811.811 0 0 1 58 20a1 1 0 0 0 1-1v-2a1 1 0 0 0-1-1zM39.228 11.365a1 1 0 0 0-.208.829c.162.827.3 2.773-.31 3.516A.811.811 0 0 1 38 16a1 1 0 0 0-1 1v2a1 1 0 0 0 1 1 .811.811 0 0 1 .71.29c.61.743.472 2.689.31 3.516A1 1 0 0 0 40 25h2v-2h-.865a5.866 5.866 0 0 0-.877-3.977A2.717 2.717 0 0 0 39 18.154v-.308a2.717 2.717 0 0 0 1.258-.869A5.866 5.866 0 0 0 41.135 13H42v-2h-2a1 1 0 0 0-.772.365zM43 17h2v2h-2zM51 17h2v2h-2zM47 17h2v2h-2zM23 44h6v2h-6z"/><path class="cls-11" d="M28 44h-4v-6h-2v14h2v-6h4v6h2V38h-2v6zM32 40h3v12h2V40h3v-2h-8v2zM49.179 38.016a1 1 0 0 0-1.116.632L46 44.152l-2.063-5.5A1 1 0 0 0 42 39v13h2v-7.485l1.063 2.837a1 1 0 0 0 1.874 0L48 44.515V52h2V39a1 1 0 0 0-.821-.984zM55 50a.915.915 0 0 1-1-1V38h-2v11a2.916 2.916 0 0 0 3 3h4v-2z"/></g></svg>