<svg xmlns="http://www.w3.org/2000/svg" viewBox="0 0 512 512" style="enable-background:new 0 0 512 512" xml:space="preserve"><path style="fill:#f9ae41" d="M491.197 346.503c-8.415-27.728-49.62-40.006-92.227-27.078-42.484 12.892-70.074 45.917-61.622 73.764 8.45 27.846 49.741 39.967 92.224 27.079 42.77-12.977 70.001-46.109 61.625-73.765z"/><path style="fill:#f98821" d="M373.583 360.227c-3.189-10.506-1.241-21.747 4.694-32.368-30.284 15.803-47.909 42.327-40.929 65.33 8.45 27.846 49.741 39.967 92.224 27.079 26.445-8.024 47.095-23.851 56.894-41.371-46.328 24.153-102.715 14.843-112.883-18.67z"/><path style="fill:#f9ae41" d="m478.087 8.033-302.28 75.39v113.49l316.91-79.038V17.449c0-12.173-12.106-10.001-14.63-9.416z"/><path style="fill:#f98821" d="M311.193 49.657 175.807 83.422v113.49l140.921-35.144c-43.785-22.572-48.535-71.264-5.535-112.111z"/><path style="fill:#f9ae41" d="M174.443 425.54c8.45 27.848-19.14 60.876-61.624 73.766-42.486 12.89-83.774.768-92.225-27.08-8.451-27.844 19.139-60.871 61.624-73.762 42.485-12.892 83.774-.769 92.225 27.076z"/><path style="fill:#f98821" d="M56.829 439.263c-3.189-10.504-1.243-21.745 4.692-32.365-30.284 15.803-47.908 42.326-40.927 65.328 8.452 27.849 49.741 39.97 92.225 27.08 26.457-8.027 47.131-23.864 56.93-41.396-46.234 24.118-102.718 14.969-112.92-18.647z"/><path d="M498.892 355.601c0-374.207 1.853-351.384-3.714-354.642-3.536-2.079-1.092-1.938-59.236 12.564a7.505 7.505 0 0 0 3.633 14.563l44.309-11.051v97.336L245.22 173.409a7.502 7.502 0 0 0-5.482 9.086 7.502 7.502 0 0 0 9.086 5.482l235.061-58.145v195.189c-33.691-30.182-107.259-18.606-141.06 21.857-42.803 51.236 11.299 104.411 87.974 81.149 34.124-10.357 68.093-36.379 68.093-72.426zm-26.416 29.344c-22.001 26.335-67.235 40.122-100.27 30.426-51.696-15.179-30.235-69.867 28.17-87.59 59.056-17.917 106.314 16.213 72.1 57.164z"/><path d="m220.483 180.076-36.62 9.133V91.86l230.751-57.55a7.505 7.505 0 0 0 5.466-9.097 7.51 7.51 0 0 0-9.097-5.466C160.317 82.265 172.744 78.369 170.388 81.465c-2.649 3.485-1.533-18.336-1.533 322.125-6.519-5.839-14.969-10.39-25.045-13.347-62.872-18.46-144.581 33.362-129.081 84.43 12.774 42.096 83.178 49.609 132.678 17.316a7.505 7.505 0 0 0-8.202-12.57C96.061 507.567 38.16 500.201 29.09 470.313c-11.47-37.793 58.066-81.064 110.49-65.672 30.924 9.081 38.637 35.039 16.964 59.925a7.506 7.506 0 0 0 .73 10.588 7.507 7.507 0 0 0 10.588-.73c9.348-10.735 15.998-24.195 15.998-38.175V204.677l40.251-10.038a7.505 7.505 0 0 0-3.628-14.563z"/></svg>