<svg xmlns="http://www.w3.org/2000/svg" viewBox="0 0 1000 1000" xml:space="preserve"><switch><g><circle fill="#39276B" cx="500" cy="500" r="398"/><circle fill="#472A77" cx="500" cy="500" r="344.3"/><path fill="#39276B" d="M735.3 717.4c.1-.1.2-.2.2-.3.4-.5.7-.9 1-1.4.1-.2.3-.4.4-.6.2-.4.5-.8.7-1.2.2-.3.4-.7.5-1 0-.1.1-.1.1-.2 4-8.4 2.5-18.7-4.4-25.6L717.9 671l.1-.1.2-.2c.4-.4.9-.9 1.2-1.4l.1-.1 1.2-1.5c.1-.1.1-.2.2-.3.4-.5.7-1 1-1.6.1-.1.1-.2.2-.3.3-.6.6-1.1.9-1.7 0-.1.1-.1.1-.2.6-1.2 1-2.5 1.4-3.8 0-.1 0-.1.1-.2.2-.6.3-1.3.4-2v-.3c.1-.7.2-1.3.3-2v-.2c.1-.7.1-1.4.1-2.2v-10.2.1V360v.1-10.2c0-14.1-11.4-25.6-25.6-25.6h-89c-31.5-21.6-69.5-34.2-110.5-34.2s-79 12.7-110.5 34.2H300c-14.1 0-25.6 11.4-25.6 25.6V360v-.1 282.8-.1 10.2c0 14.1 11.4 25.6 25.6 25.6h128.6v60.7h-56.4c-5.6 0-10.4 3.4-12.4 8.3-.3.8-.6 1.6-.7 2.4v.2c-.1.4-.1.7-.2 1.1 0 .4-.1.9-.1 1.3 0 1 .1 2.1.4 3 .1.6.3 1.2.5 1.7.1.3.3.7.4 1 .7 1.4 1.5 2.6 2.6 3.7 2.4 2.4 5.8 3.9 9.5 3.9h255.4c3.3 0 6.3-1.2 8.6-3.1 1.5-1.2 2.6-2.7 3.5-4.5.2-.3.3-.7.4-1 .2-.6.4-1.1.5-1.7.2-1 .4-2 .4-3 0-.5 0-.9-.1-1.3 0-.4-.1-.7-.2-1.1v-.2c-.2-.8-.4-1.7-.7-2.4-2-4.9-6.8-8.3-12.4-8.3h-56.4v-60.7h90.4l.3.3 40.1 40.1a22.5 22.5 0 0 0 15.9 6.6c3.6 0 7.2-.9 10.5-2.6 2-1 3.8-2.4 5.5-4 .6-.3 1-.9 1.4-1.4z"/><g><path fill="#FFDF25" d="M725.4 329.8v303.1c0 12.4-8.8 22.8-20.6 25.1-1.6.3-3.3.5-5 .5H300.1c-14.1 0-25.6-11.4-25.6-25.6V329.8c0-14.1 11.4-25.6 25.6-25.6h399.7c14.2.1 25.6 11.5 25.6 25.6z"/><path fill="#FFEF1D" d="M699.9 304.3H300.1c-14.1 0-25.6 11.4-25.6 25.6V340c0-14.1 11.4-25.6 25.6-25.6h399.7c14.1 0 25.6 11.4 25.6 25.6v-10.2c0-14.1-11.4-25.5-25.5-25.5z"/><path fill="#F9CC00" d="M699.9 648.3H300.1c-14.1 0-25.6-11.4-25.6-25.6v10.2c0 14.1 11.4 25.6 25.6 25.6h399.7c14.1 0 25.6-11.4 25.6-25.6v-10.2c0 14.1-11.4 25.6-25.5 25.6zM302.3 340.7h395.3v251.6H302.3z"/><path fill="#EA5095" d="M311.9 351h376.2v231.1H311.9z"/><path fill="#E23187" d="M428.7 658.5h142.6v60.8H428.7z"/><path fill="#AB226B" d="M428.7 658.5h142.6v17.6H428.7z"/><path fill="#EA5095" d="M627.7 746H372.3c-7.4 0-13.4-6-13.4-13.4s6-13.4 13.4-13.4h255.4c7.4 0 13.4 6 13.4 13.4s-6 13.4-13.4 13.4z"/><path fill="#E23187" d="M627.7 735.8H372.3c-5.6 0-10.4-3.4-12.4-8.3-.7 1.6-1 3.3-1 5.1 0 7.4 6 13.4 13.4 13.4h255.4c7.4 0 13.4-6 13.4-13.4 0-1.8-.4-3.5-1-5.1-2 4.9-6.8 8.3-12.4 8.3z"/><path fill="#FFDF25" d="M500 630.5c-5.8 0-10.6-4.7-10.6-10.6 0-5.8 4.7-10.6 10.6-10.6 5.8 0 10.6 4.7 10.6 10.6 0 5.8-4.8 10.6-10.6 10.6z"/><g fill="#E9AF00"><path d="M567.5 351c-20.3-10.2-43.1-15.9-67.3-16h.2c24.2 0 47.2 5.8 67.5 16h74.4c-35.7-37.6-86.1-61-141.9-61-55.8 0-106.2 23.5-141.9 61h209zM688.1 541.3c5.2-17.6 8-36.2 8-55.5 0-19.3-2.8-37.9-8-55.5v111zM311.9 433c-4.7 16.8-7.2 34.5-7.2 52.8 0 18.3 2.5 36 7.2 52.8V433zM704.9 658c-1.6.3-3.3.5-5 .5h-58.2L622.2 639c-9.3 7.4-19.2 13.9-29.7 19.5h-184c-32.8-17.5-60-44.1-78.3-76.4H616c-27.2 32.6-67.8 53.6-113.3 54.4 45.6-.6 86.4-21.7 113.7-54.4h54.5c-5 8.8-10.6 17.1-16.8 25l50.8 50.9z"/></g><path fill="#AB226B" d="M500.4 681.5c25 0 48.9-4.7 70.9-13.3v-9.7H428.7v9.4c22.2 8.8 46.4 13.6 71.7 13.6z"/><g fill="#E23187"><path d="M311.9 433v105.6c4.3 15.3 10.4 29.9 18.1 43.5h285.8c21.8-26.1 34.9-59.7 34.9-96.3 0-58.9-33.9-109.9-83.2-134.7h-209c-21.6 22.7-37.9 50.7-46.6 81.9z"/><path d="M688.1 541.3v-111c-8.9-30-24.8-57.1-45.9-79.3h-74.4c49.3 24.8 83.2 75.9 83.2 134.7 0 36.6-13.1 70.2-34.9 96.3h54.5c7.4-12.7 13.3-26.4 17.5-40.7z"/></g><g><path fill="#FFF" d="M718 705.5c-5.8 0-11.5-2.2-15.9-6.6l-90.2-90.2c-8.8-8.8-8.8-23 0-31.8s23-8.8 31.8 0l90.2 90.2c8.8 8.8 8.8 23 0 31.8-4.3 4.4-10.1 6.6-15.9 6.6z"/><path fill="#C6C6C6" d="M731.7 691.9c-5.8 0-11.5-2.2-15.9-6.6l-90.2-90.2c-6.4-6.4-8.1-15.5-5.3-23.5-3.1 1.1-5.9 2.8-8.4 5.3-8.8 8.8-8.8 23 0 31.8l90.2 90.2a22.5 22.5 0 0 0 15.9 6.6c5.8 0 11.5-2.2 15.9-6.6 2.4-2.4 4.2-5.3 5.3-8.4-2.4 1-5 1.4-7.5 1.4z"/><path fill="#FFF" d="M500.4 661.5c-107.9 0-195.7-87.8-195.7-195.7S392.5 270 500.4 270s195.7 87.8 195.7 195.7-87.8 195.8-195.7 195.8zm0-346.5c-83.1 0-150.7 67.6-150.7 150.7s67.6 150.7 150.7 150.7 150.7-67.6 150.7-150.7c0-83-67.6-150.7-150.7-150.7z"/><path fill="#C6C6C6" d="M500.4 292.5c-95.7 0-173.2 77.6-173.2 173.2 0 95.7 77.6 173.2 173.2 173.2 95.7 0 173.2-77.6 173.2-173.2s-77.5-173.2-173.2-173.2zm0 324c-83.1 0-150.7-67.6-150.7-150.7s67.6-150.7 150.7-150.7 150.7 67.6 150.7 150.7-67.6 150.7-150.7 150.7z"/><path fill="#E23187" d="M500 616.5c-83.1 0-150.7-67.6-150.7-150.7S416.9 315.1 500 315.1s150.7 67.6 150.7 150.7S583.1 616.5 500 616.5z"/><g fill="#AB226B"><path d="m552.9 438.3-2-8-10.6-43.4-.7-3c-2.1-8.5-11.8-12.5-19.2-7.9l-2.8 1.7c-2 1.2-4.2 2.3-6.3 3-1.5.5-2.9.9-4.5 1.2-4.5.9-9.2.9-13.7 0-1.5-.3-3-.7-4.5-1.2-2.2-.8-4.3-1.8-6.3-3l-2.8-1.7c-7.4-4.6-17.2-.6-19.2 7.9l-.5 1.8-10.8 44.6-2 8c-38.1 3.5-64.2 10.6-64.2 18.8v12.3c0 11.6 52.4 21.1 117.1 21.1S617 481.1 617 469.4v-12.3c.1-8.2-26-15.3-64.1-18.8zM571.2 505.7c-1.6.2-3.3.4-4.9.7l-4.2.6c-1.6.2-3.2.4-4.7.6-1.4.2-2.8.3-4.1.5-1.6.2-3.2.3-4.8.5-1.3.1-2.7.3-4 .4-1.6.1-3.3.3-4.9.4-1.3.1-2.6.2-4 .3-1.7.1-3.3.2-5 .3-1.3.1-2.6.2-3.9.2-1.7.1-3.4.2-5.1.2-1.2.1-2.5.1-3.7.2-1.9.1-3.8.1-5.7.2-1 0-2.1.1-3.1.1-2.6 0-5.2.1-7.8.1h-2.1c-2.6 0-5.2 0-7.8-.1-1 0-2.1-.1-3.1-.1-1.9 0-3.8-.1-5.7-.2-1.2 0-2.5-.1-3.7-.2-1.7-.1-3.4-.1-5.1-.2-1.3-.1-2.6-.2-3.9-.2-1.7-.1-3.3-.2-5-.3-1.3-.1-2.6-.2-4-.3-1.6-.1-3.3-.3-4.9-.4-1.3-.1-2.7-.3-4-.4-1.6-.2-3.2-.3-4.8-.5-1.4-.2-2.8-.3-4.1-.5-1.6-.2-3.2-.4-4.7-.6l-4.2-.6c-1.6-.2-3.3-.4-4.9-.7-3.7-.5-6.6 3-5.5 6.5l11.1 34.5c7.9 18.4 31 24.4 46.9 12.3 11-8.4 26.3-8.4 37.3 0 15.9 12.1 39 6.1 46.9-12.3l11.1-34.5c.7-3.5-2.3-7-5.9-6.5zm-35.1 24.1h18.8c-2.4 4.9-6.8 11.5-13.1 13.2-8 2.3-16.8-2.1-20.5-4.2 2.2-3.9 6.5-9 14.8-9zm-68.4 0c8.3 0 12.7 5.1 14.8 9-3.7 2.2-12.5 6.5-20.5 4.2-6.3-1.8-10.7-8.4-13.1-13.2h18.8z"/></g><g><ellipse fill="#FFF" cx="500" cy="447.1" rx="117.1" ry="21.1"/><path fill="#EDEDED" d="M554.9 436.5c0 12.8-109.9 12.8-109.9 0l15.3-62.6c2.1-8.5 11.8-12.5 19.2-7.9l2.8 1.7c10.8 6.6 24.5 6.6 35.3 0l2.8-1.7c7.4-4.6 17.2-.6 19.2 7.9l15.3 62.6z"/><path fill="#DADADA" d="m449 420.3-4 16.2c0 12.8 109.9 12.8 109.9 0l-4-16.2c-17 7.6-84.8 7.6-101.9 0z"/><path fill="#FFF" d="m476.9 375.5 3.2 1.7c12.2 6.6 27.6 6.6 39.8 0l3.2-1.7c5.8-3.1 12.8-2.2 17.3 1.4l-.7-3c-2.1-8.5-11.8-12.5-19.2-7.9l-2.8 1.7c-10.8 6.6-24.5 6.6-35.3 0l-2.8-1.7c-7.4-4.6-17.2-.6-19.2 7.9l-.7 3c4.5-3.7 11.5-4.6 17.2-1.4z"/><path fill="#DADADA" d="M382.9 447.1c0 11.6 52.4 21.1 117.1 21.1s117.1-9.4 117.1-21.1v12.3c0 11.6-52.4 21.1-117.1 21.1s-117.1-9.4-117.1-21.1v-12.3z"/><path fill="#C6C6C6" d="m423.3 502.2 11.1 34.5c7.9 18.4 31 24.4 46.9 12.3 11-8.4 26.3-8.4 37.3 0 15.9 12.1 39 6.1 46.9-12.3l11.1-34.5c1.1-3.5-1.8-7-5.5-6.5-47.5 6.9-94.9 6.9-142.4 0-3.5-.5-6.5 3-5.4 6.5zm118.5 36.4c-10.4 2.9-22.3-5.4-22.3-5.4s3.1-13.5 16.6-13.5h21.2s-5 16-15.5 18.9zm-95.3-18.8h21.2c13.5 0 16.6 13.5 16.6 13.5s-11.9 8.3-22.3 5.4c-10.4-3-15.5-18.9-15.5-18.9z"/><path fill="#FFF" d="m423.8 502.5 10.6 28.7c7.9 18.4 31 24.4 46.9 12.3 11-8.4 26.3-8.4 37.3 0 15.9 12.1 39 6.1 46.9-12.3l10.6-28.7c1.3-3.6-1.6-7.2-5.4-6.7-47.2 6.8-94.4 6.8-141.5 0-3.7-.6-6.7 3.1-5.4 6.7zm118 30.5c-10.4 2.9-22.3-5.4-22.3-5.4s3.1-13.5 16.6-13.5h21.2s-5 16-15.5 18.9zm-95.3-18.8h21.2c13.5 0 16.6 13.5 16.6 13.5S472.4 536 462 533c-10.4-2.9-15.5-18.8-15.5-18.8z"/></g></g></g></g></switch></svg>