<svg xmlns="http://www.w3.org/2000/svg" viewBox="0 0 512.001 512.001" style="enable-background:new 0 0 512.001 512.001" xml:space="preserve"><path style="fill:#c8f56e" d="M328.155 400.067c41.021 17.069 89.072 19.49 122.134 5.152 3.774-1.636 5.4-6.036 4.106-9.941-7.657-23.102-25.828-49.848-46.078-67.358l-80.162 24.048v48.099z"/><path style="fill:#b4e66e" d="M424.63 344.586c-29.58 23.769-62.816 40.599-96.476 49.099V351.97l80.162-24.048c5.677 4.908 11.15 10.587 16.314 16.664z"/><path style="fill:#a0d755" d="M183.862 400.067c-41.021 17.069-89.072 19.49-122.134 5.152-3.774-1.636-5.4-6.036-4.106-9.941 7.657-23.102 25.828-49.848 46.078-67.358l80.162 24.048v48.099z"/><path style="fill:#8cc655" d="M87.386 344.586c29.58 23.769 62.816 40.599 96.476 49.099V351.97L103.7 327.922c-5.677 4.908-11.151 10.587-16.314 16.664z"/><path style="fill:#b4e66e" d="M175.921 368.003c1.625 47.842 29.54 89.877 71.484 115.355a16.515 16.515 0 0 0 17.197.005c41.641-25.29 69.455-66.897 71.453-114.304l-160.134-1.056z"/><path style="fill:#a0d755" d="M175.921 368.003c1.625 47.842 29.54 89.877 71.484 115.355 5.207 3.163 11.648 3.185 16.9.135-.045-.058-.095-.075-.139-.135-12.348-16.649-21.942-40.407-27.333-68.208-1.518-7.83 4.524-15.142 12.499-15.132 11.119.014 24.57.05 29.442.05 17.845 0 36.037-2.633 54.073-7.607 1.745-7.608 2.874-15.413 3.211-23.401l-160.137-1.057z"/><path style="fill:#ff82a0" d="M191.892 122.733c-23.84-24.273-50.082-42.52-76.472-53.211-2.026-.821-4.379.143-5.243 2.151-12.333 28.667-17.154 64.229-13.775 102.835l87.461 49.201 11.136-97.766a305.62 305.62 0 0 0-3.107-3.21z"/><path style="fill:#ff96af" d="M125.545 74.007c-2.241 26.676-3.124 77.813 15.25 125.477l43.067 24.226 11.136-97.766a287.019 287.019 0 0 0-3.106-3.211c-20.788-21.164-43.402-37.739-66.347-48.726z"/><path style="fill:#ffaac0" d="M319.791 122.733c23.84-24.273 50.082-42.52 76.472-53.211 2.026-.821 4.379.143 5.243 2.151 12.333 28.667 17.154 64.229 13.775 102.835l-87.461 49.201-11.136-97.766a316.052 316.052 0 0 1 3.107-3.21z"/><path style="fill:#ff96af" d="M386.139 74.007c2.241 26.676 3.124 77.813-15.25 125.477l-43.067 24.226-11.136-97.766a287.019 287.019 0 0 1 3.106-3.211c20.788-21.164 43.401-37.739 66.347-48.726z"/><path style="fill:#ff6991" d="M12.601 152.884c-2.762.311-4.926 2.654-5.017 5.432-1.75 53.565 24.901 114.721 75.946 161.869 52.582 48.567 117.93 70.151 172.161 62.26 3.567-54.686-23.129-118.118-75.711-166.684-51.045-47.148-114.121-68.867-167.379-62.877z"/><path style="fill:#ff507d" d="m254.448 351.343.134.035c-1.005-7.691-2.597-15.463-4.659-23.255-.045-.168-.07-.336-.115-.504l-.015.001c-10.493-39.216-34.181-78.949-69.813-111.86a264.942 264.942 0 0 0-21.246-17.641l-.091.046c-.773 36.761 5.593 72.019 17.884 103.614 2.534 6.515-3.869 13.022-10.335 10.366-25.993-10.675-51.549-26.74-74.646-48.074-35.631-32.91-59.331-72.644-69.827-111.859-3.062.162-6.107.379-9.117.694-2.761.289-4.927 2.627-5.018 5.401-1.753 53.567 24.898 114.728 75.946 161.878 52.582 48.567 117.93 70.151 172.162 62.26.659-10.113.151-20.54-1.244-31.102z"/><path style="fill:#ff82a0" d="M499.414 152.884c2.762.311 4.926 2.654 5.017 5.432 1.75 53.565-24.901 114.721-75.946 161.869-52.582 48.567-117.93 70.151-172.161 62.26-3.567-54.686 23.129-118.118 75.711-166.684 51.043-47.148 114.121-68.867 167.379-62.877z"/><path style="fill:#ff6991" d="M396.164 223.776c33.039-30.516 71.117-50.362 108.311-58.954.021-2.189.006-4.37-.057-6.538-.08-2.759-2.217-5.086-4.96-5.395-53.267-6.007-116.365 15.711-167.424 62.871-52.582 48.566-79.278 111.998-75.711 166.684 20.156 2.933 41.85 1.777 63.85-3.305.507-51.962 26.999-110.112 75.991-155.363z"/><path style="fill:#ff6991" d="M259.536 26.499c-2.046-1.634-5.01-1.634-7.056 0-46.816 37.392-77.867 102.978-77.867 177.651 0 74.303 30.745 139.608 77.172 177.093 2.443 1.972 6.005 1.972 8.447 0 46.427-37.485 77.172-102.79 77.172-177.093 0-74.674-31.052-140.26-77.868-177.651z"/><path style="fill:#ff82a0" d="M237.509 203.641c0 62.025 14.409 118.84 38.306 163.269 37.574-38.621 61.59-97.15 61.59-162.761 0-65.813-24.16-124.51-61.935-163.125-23.688 44.334-37.961 100.894-37.961 162.617z"/><path d="M496.781 239.351c12.527-29.625 17.464-59.999 14.278-87.841a7.499 7.499 0 0 0-6.701-6.609c-24.219-2.439-50.06.213-75.881 7.665-.154-32.674-7.569-62.971-21.697-88.141a7.499 7.499 0 0 0-8.631-3.531c-25.729 7.47-51.021 21.583-73.697 41.013a232.939 232.939 0 0 0-2.645-5.964c-14.735-31.973-35.925-59.001-61.277-78.165a7.502 7.502 0 0 0-9.045 0c-25.352 19.164-46.542 46.193-61.276 78.165a236.487 236.487 0 0 0-2.645 5.964c-22.676-19.429-47.968-33.543-73.697-41.013a7.5 7.5 0 0 0-8.631 3.532c-14.129 25.17-21.548 55.492-21.698 88.18-25.576-7.394-51.431-10.164-75.894-7.705a7.5 7.5 0 0 0-6.7 6.61c-3.187 27.841 1.75 58.216 14.278 87.84 12.8 30.27 33.365 59.207 59.47 83.685a274.532 274.532 0 0 0 13.194 11.574c-19.876 19.095-33.81 42.223-39.567 65.89a7.5 7.5 0 0 0 3.773 8.398c18.483 9.805 40.075 14.716 62.694 14.716 19.832 0 40.455-3.788 60.464-11.352 12.037 34.248 39.277 63.829 77.432 82.699a7.5 7.5 0 0 0 6.65 0c38.102-18.843 65.363-48.453 77.417-82.705 20.016 7.569 40.64 11.359 60.48 11.358 22.617-.001 44.214-4.913 62.694-14.716a7.5 7.5 0 0 0 3.773-8.398c-5.759-23.676-19.694-46.798-39.574-65.895a274.796 274.796 0 0 0 13.187-11.568c26.108-24.478 46.672-53.416 59.472-83.686zM115.474 77.106c23.198 7.736 45.943 21.348 66.321 39.685-8.656 24.626-13.595 51.18-14.508 78.207-21.442-16.183-44.811-28.842-68.723-37.496-.56-29.677 5.239-57.268 16.91-80.396zM29.036 233.509c-10.601-25.069-15.31-50.575-13.742-74.18 50.325-3.097 106.462 17.096 152.007 54.792 1.525 42.359 12.755 82.687 32.724 117.189a7.5 7.5 0 0 0 12.982-7.514c-20.21-34.92-30.893-76.292-30.893-119.646 0-35.856 7.51-71.102 21.717-101.929 12.812-27.799 30.781-51.512 52.176-68.928 21.396 17.416 39.365 41.129 52.177 68.928 14.207 30.827 21.717 66.073 21.717 101.929s-7.51 71.102-21.717 101.928c-12.812 27.8-30.781 51.513-52.177 68.929-9.623-7.832-18.588-16.962-26.708-27.205a7.502 7.502 0 0 0-11.755 9.319 195.236 195.236 0 0 0 18.994 20.719c-21.873-.315-44.895-4.778-67.573-13.209-30.336-11.278-59.387-29.445-84.014-52.536-24.59-23.057-43.925-50.231-55.915-78.586zm35.447 164.782c6.023-19.521 18.368-38.483 35.374-54.343 19.881 14.62 41.544 26.438 63.882 34.743 1.636.608 3.274 1.195 4.914 1.765a120.732 120.732 0 0 0 2.497 17.325c-36.993 14.315-76.123 14.472-106.667.51zm191.525 81.536c-40.715-21.251-66.902-55.926-71.806-94.566 18.509 5.036 37.024 7.615 54.845 7.615 5.73 0 11.39-.274 16.953-.808 5.565.535 11.221.808 16.954.808 17.827 0 36.351-2.582 54.867-7.621-4.908 38.63-31.148 73.344-71.813 94.572zm191.526-81.536c-30.546 13.959-69.683 13.803-106.676-.513a120.447 120.447 0 0 0 2.495-17.322 238.51 238.51 0 0 0 4.911-1.764c22.34-8.306 44.005-20.124 63.889-34.748 17.009 15.863 29.357 34.819 35.381 54.347zm-20.483-86.196c-24.627 23.091-53.679 41.258-84.014 52.536-22.674 8.43-45.693 12.892-67.561 13.209 18.761-17.715 34.599-40.024 46.332-65.483 13.784-29.908 21.617-63.676 22.888-98.229 12.361-10.234 25.612-19.298 39.438-26.934a7.5 7.5 0 1 0-7.252-13.13c-11.12 6.142-21.885 13.155-32.155 20.912-.914-27.019-5.853-53.565-14.507-78.184 20.379-18.337 43.123-31.949 66.322-39.685 11.67 23.123 17.469 50.69 16.914 80.353a246.534 246.534 0 0 0-9.538 3.648 7.499 7.499 0 0 0-4.104 9.78 7.5 7.5 0 0 0 9.78 4.104c29.351-11.997 59.327-17.37 87.114-15.663 1.567 23.604-3.142 49.112-13.742 74.18-11.991 28.355-31.325 55.529-55.915 78.586z"/></svg>