<svg xmlns="http://www.w3.org/2000/svg" viewBox="0 0 512 512"><defs><style>.cls-3{fill:#fff}.cls-5{fill:#7b88c1}.cls-6{fill:#343e6c}.cls-7{fill:#414e89}.cls-10{fill:#b57999}</style></defs><circle cx="256" cy="256" r="256" style="fill:#ce404a" id="BULINE"/><g id="Icons"><circle cx="255.16" cy="254.58" r="199.12" style="fill:#a63441"/><path class="cls-3" d="M371.38 152.13v209.73a11.92 11.92 0 0 1-11.92 11.92H254.59V140.2h104.87a11.93 11.93 0 0 1 11.92 11.93z"/><path d="M345.48 178v158a11.92 11.92 0 0 1-11.92 11.92h-79V166.11h79A11.93 11.93 0 0 1 345.48 178z" style="fill:#37417d"/><path class="cls-5" d="M310.07 214.13h-54.91v-10.86h49.47v-37.16h10.87v42.59a5.43 5.43 0 0 1-5.43 5.43z"/><path class="cls-6" d="M315.5 347.87h-10.87v-37.15h-49.47v-10.87h54.91a5.43 5.43 0 0 1 5.43 5.43z"/><path class="cls-7" d="M255.16 236.59h90.32v10.87h-90.32z"/><path class="cls-5" d="M255.16 269.4h90.32v10.87h-90.32z"/><rect class="cls-6" x="323.11" y="215.46" width="16.42" height="16.42" rx="3.46"/><rect class="cls-7" x="269.99" y="181.42" width="16.42" height="16.42" rx="3.46"/><rect class="cls-5" x="323.11" y="285.98" width="16.42" height="16.42" rx="3.46"/><rect class="cls-5" x="269.99" y="320.86" width="16.42" height="16.42" rx="3.46"/><path d="M214.89 45.66a45.92 45.92 0 0 1 45.92 45.93 47.07 47.07 0 0 1-.71 8.09l.71 317.9a45.93 45.93 0 1 1-91.12-8.11 45.4 45.4 0 0 1-14.24-2A45.91 45.91 0 0 1 125.07 350c.28-.91.61-1.82 1-2.72a35.28 35.28 0 0 1-33.5-40.06 60.15 60.15 0 0 1-3.3-104.33c1-.65 2.11-1.26 3.19-1.84a35.84 35.84 0 0 1-.22-3.9A35.34 35.34 0 0 1 126 161.87c-.34-.9-.67-1.81-1-2.74a45.93 45.93 0 0 1 44.62-59.44 45.88 45.88 0 0 1 45.2-54z" style="fill:#da8ab1"/><path d="M214.89 45.66a45.92 45.92 0 0 1 45.92 45.93 47.07 47.07 0 0 1-.71 8.09l.71 293.43a45.44 45.44 0 0 1-19.2 4.21 45.93 45.93 0 0 1-45.93-45.93 45.22 45.22 0 0 1 .73-8.11 46 46 0 0 1-44.62-59.45c.28-.91.61-1.82 1-2.72a35.28 35.28 0 0 1-33.5-40.06 60.23 60.23 0 0 1-30-38.14c1-.65 2.11-1.26 3.19-1.84a35.84 35.84 0 0 1-.22-3.9 35.34 35.34 0 0 1 33.74-35.3c-.34-.9-.67-1.81-1-2.74a45.93 45.93 0 0 1 44.62-59.44 45.88 45.88 0 0 1 45.2-54z" style="fill:#daa0c3"/><path class="cls-10" d="M86.85 268a1.93 1.93 0 0 1-3.06 2.18l-.07-.06a33.77 33.77 0 0 1 45.08-50.29l.39.35a1.93 1.93 0 0 1-1.86 3.27A33.78 33.78 0 0 0 86.85 268zM188.31 277.94a1.94 1.94 0 0 1-.78 3.68h-.08a33.77 33.77 0 0 1-1-67.53h.55a1.94 1.94 0 0 1 .84 3.67 33.78 33.78 0 0 0 .46 60.19zM198.45 117.41a1.93 1.93 0 0 1-3.06 2.18l-.06-.06a33.77 33.77 0 0 1 45.07-50.3l.39.36a1.93 1.93 0 0 1-1.86 3.27 33.78 33.78 0 0 0-40.48 44.55zM175.28 386.29a1.3 1.3 0 0 1-1.59 2h-.05a22.75 22.75 0 0 1 20-40.85l.32.16a1.3 1.3 0 0 1-.61 2.46 22.76 22.76 0 0 0-18.1 36.29zM214.34 262.91a1.3 1.3 0 0 1-.92-2.35A22.75 22.75 0 0 1 239 298.18l-.29.2a1.31 1.31 0 0 1-1.83-1.76 22.76 22.76 0 0 0-22.53-33.71zM160.22 145.39a1.31 1.31 0 0 1-.93-2.36h.05a22.75 22.75 0 0 1 25.53 37.66l-.29.2a1.31 1.31 0 0 1-1.84-1.76 22.75 22.75 0 0 0-22.52-33.71zM243 425.39a1.83 1.83 0 0 1 2.38 2.63v.07A31.92 31.92 0 0 1 193 391.43l.29-.41a1.83 1.83 0 0 1 3.28 1.39 31.93 31.93 0 0 0 46.35 33zM134.68 325.73a1.3 1.3 0 0 1 .51 2.48h-.06a22.75 22.75 0 0 1-18.7-41.47l.32-.15a1.31 1.31 0 0 1 1.51 2.05 22.75 22.75 0 0 0 16.42 37.07z"/><path class="cls-3" d="M331.32 127.83a12.5 12.5 0 0 1-12.5-12.5V72a12.5 12.5 0 0 1 25 0v43.34a12.5 12.5 0 0 1-12.5 12.49zM278.2 127.83a12.5 12.5 0 0 1-12.5-12.5V72a12.5 12.5 0 0 1 25 0v43.34a12.5 12.5 0 0 1-12.5 12.49zM331.32 453.16a12.5 12.5 0 0 1-12.5-12.5v-43.33a12.5 12.5 0 0 1 25 0v43.33a12.5 12.5 0 0 1-12.5 12.5zM278.2 453.16a12.5 12.5 0 0 1-12.5-12.5v-43.33a12.5 12.5 0 0 1 25 0v43.33a12.5 12.5 0 0 1-12.5 12.5zM445.05 267.08h-43.33a12.5 12.5 0 0 1 0-25h43.33a12.5 12.5 0 1 1 0 25zM445.05 336.36h-43.33a12.5 12.5 0 0 1 0-25h43.33a12.5 12.5 0 1 1 0 25zM445.05 202.13h-43.33a12.5 12.5 0 0 1 0-25h43.33a12.5 12.5 0 1 1 0 25z"/></g></svg>