<svg fill="#ffffff" width="64px" height="64px" viewBox="-51.2 -51.2 614.40 614.40" xmlns="http://www.w3.org/2000/svg" transform="matrix(1, 0, 0, 1, 0, 0)rotate(0)" stroke="#000000" stroke-width="0.00512"><g id="SVGRepo_bgCarrier" stroke-width="0" transform="translate(0,0), scale(1)"><rect x="-51.2" y="-51.2" width="614.40" height="614.40" rx="307.2" fill="#7ed0ec" strokewidth="0"></rect></g><g id="SVGRepo_tracerCarrier" stroke-linecap="round" stroke-linejoin="round" stroke="#CCCCCC" stroke-width="10.24"></g><g id="SVGRepo_iconCarrier"><title>ionicons-v5-d</title><path d="M192,96a64,64,0,1,0-96,55.39V360.61a64,64,0,1,0,64,0V151.39A64,64,0,0,0,192,96ZM128,64A32,32,0,1,1,96,96,32,32,0,0,1,128,64Zm0,384a32,32,0,1,1,32-32A32,32,0,0,1,128,448Z"></path><path d="M416,360.61V156a92.1,92.1,0,0,0-92-92H304V32a16,16,0,0,0-27.31-11.31l-64,64a16,16,0,0,0,0,22.62l64,64A16,16,0,0,0,304,160V128h20a28,28,0,0,1,28,28V360.61a64,64,0,1,0,64,0ZM384,448a32,32,0,1,1,32-32A32,32,0,0,1,384,448Z"></path></g></svg>