<svg xmlns="http://www.w3.org/2000/svg" xml:space="preserve" width="655.359" height="655.359" style="shape-rendering:geometricPrecision;text-rendering:geometricPrecision;image-rendering:optimizeQuality;fill-rule:evenodd;clip-rule:evenodd" viewBox="0 0 6.827 6.827"><defs><style>.fil0{fill:#be7a17}</style></defs><g id="Layer_x0020_1"><g id="_256027736"><path id="_256028000" class="fil0" d="M4.632.959c.646-.13.987.476.606.977a.776.776 0 0 1-.006.008c-.443-.025-.449-.02-.924-.053a.808.808 0 0 1-.049-.047c-.006-.568.059-.736.373-.885z"/><path id="_256027784" d="M4.72 3.469c-.196-.56-.283-.997-.303-1.338l-.007-.007c-.006-.568.059-1.016.373-1.165.018-.004.035-.006.052-.008-.012 0-.025-.003-.038-.004C3.89.89 2.99.885 2.086.853l.029.001a.672.672 0 0 0-.053.009c-.314.15-.379.597-.373 1.165l.007.007c.151 1.231.579 1.073.26 3.043l2.097-.008c-.18.146-.267.444-.166.651.067.17.406.225.589.252.306-.11.903-.61.243-2.504z" style="fill:#ff9800"/><path id="_256027664" class="fil0" d="M3.997 5.067c.02 0 .038.002.056.003.347.023.435.364.264.593a.423.423 0 0 1-.003.004c-.219-.005-.221-.003-.455-.011a.39.39 0 0 1-.025-.022c-.011-.269.01-.492.163-.567z"/><path id="_256027952" d="M4.053 5.07 1.97 4.932h-.294c-.3.11-.355.588 0 .849l2.785.19c.012.002.029.005-.001-.001-.427-.081-.698-.535-.406-.9z" style="fill:#cc871e"/></g></g><path style="fill:none" d="M0 0h6.827v6.827H0z"/></svg>