<svg xmlns="http://www.w3.org/2000/svg" viewBox="0 0 512 512" style="enable-background:new 0 0 512 512" xml:space="preserve"><path style="fill:#a55a69" d="M56 324h400v32H56z"/><path style="fill:#afb9d2" d="M176 324h160c-30.968-43.289-80-64-80-64s-49.032 20.712-80 64z"/><path style="fill:#d5dced" d="M151.5 207.75c28.481-41.643 75.957-79.747 88.425-89.402 1.716-1.329 4.154-1.019 5.523.665L256 132v128l-104 32-8-72 7.5-12.25z"/><path style="fill:#c7cfe2" d="M146.359 183.662C131.355 194.078 89.848 227.38 64 292l104 24v-16c-19.115-50.973-17.931-96.871-16.657-113.444.208-2.7-2.76-4.438-4.984-2.894z"/><path style="fill:#959cb5" d="M33.376 283.744C50.133 300.534 56 324 56 324h40l-2.333-31.667c-17.357-9.753-42.22-13.749-57.073-15.338-3.714-.396-5.856 4.106-3.218 6.749z"/><path style="fill:#cd7382" d="M24 356h464v40H24z"/><path style="fill:#e4eaf8" d="M212.672 184.163C201.525 198.645 165.452 250.012 152 324h24c28-43.333 80-64 80-64s-14.63-43.891-36.896-75.713c-1.544-2.205-4.79-2.257-6.432-.124z"/><path style="fill:#afb9d2" d="M101.962 270.223C96.165 276.864 80 297.738 80 324h96c-21.647-30.434-59.094-49.843-69.342-54.763-1.632-.784-3.506-.378-4.696.986z"/><path style="fill:#e4eaf8" d="M360.5 207.75c-28.481-41.643-75.957-79.747-88.425-89.402-1.716-1.329-4.154-1.019-5.523.665L256 132v128l104 32 8-72-7.5-12.25z"/><path style="fill:#f1f4fb" d="M365.641 183.662C380.645 194.078 422.152 227.38 448 292l-104 24v-16c19.115-50.973 17.931-96.871 16.657-113.444-.208-2.7 2.76-4.438 4.984-2.894z"/><path style="fill:#d5dced" d="M478.624 283.744C461.867 300.534 456 324 456 324h-40l2.333-31.667c17.357-9.753 42.22-13.749 57.073-15.338 3.714-.396 5.856 4.106 3.218 6.749zM299.328 184.163C310.475 198.645 346.548 250.012 360 324h-24c-28-43.333-80-64-80-64s14.63-43.891 36.896-75.713c1.544-2.205 4.79-2.257 6.432-.124z"/><path style="fill:#e4eaf8" d="M410.038 270.223C415.835 276.864 432 297.738 432 324h-96c21.647-30.434 59.094-49.843 69.342-54.763 1.632-.784 3.506-.378 4.696.986z"/><path style="fill:#a55a69" d="M224 324h64v72h-64z"/><path style="fill:#959cb5" d="M206 324h100c-19.355-27.055-50-40-50-40s-30.645 12.945-50 40z"/><path d="M504.5 388.782h-8.532v-25.081h.516a7.5 7.5 0 0 0 0-15h-32.581v-17.064h.516a7.5 7.5 0 0 0 2.331-14.626c3.951-9.845 12.01-25.485 25.878-34.73a7.5 7.5 0 0 0-3.955-13.737c-.992-.027-16.104-.365-34.091 3.253-37.46-61.572-87.992-96.667-90.129-98.133a7.499 7.499 0 0 0-11.715 6.843c.007.084.139 1.648.285 4.485-33.378-40.767-77.4-73.713-79.522-75.291a7.5 7.5 0 0 0-10.296 1.289L256 119.857l-7.206-8.868a7.5 7.5 0 0 0-10.296-1.289c-2.122 1.578-46.141 34.522-79.519 75.288.145-2.835.275-4.399.282-4.482a7.501 7.501 0 0 0-11.715-6.843c-2.137 1.467-52.669 36.561-90.129 98.133-17.988-3.618-33.1-3.281-34.091-3.252a7.5 7.5 0 0 0-3.955 13.737c13.868 9.245 21.927 24.885 25.878 34.73a7.5 7.5 0 0 0-5.17 7.126 7.5 7.5 0 0 0 7.5 7.5h.516v17.064H15.516a7.5 7.5 0 0 0 0 15h.516v25.081H7.5a7.5 7.5 0 0 0 0 15h497a7.5 7.5 0 0 0 0-15zm-23.532 0H295.564v-25.081h185.403v25.081h.001zM105.581 277.249c10.429 5.246 35.399 19.042 54.41 39.389H87.642c2.35-18.044 12.524-32.701 17.939-39.389zm69.958 34.297a147.982 147.982 0 0 0-9.634-10.322c10.988-53.387 37.636-93.133 49.607-108.913 15.147 22.942 26.454 51.207 31.079 63.663-14.147 6.674-47.641 24.76-71.052 55.572zm80.466-43.369c9.612 4.317 42.169 20.332 65.362 48.461h-130.73c23.165-28.064 55.764-44.134 65.368-48.461zm150.413 9.072c5.419 6.695 15.59 21.349 17.939 39.388h-72.349c19.013-20.348 43.985-34.144 54.41-39.388zm-174.982 54.388h49.129v57.145h-49.129v-57.145zm217.467 17.065H295.564v-17.064h153.339v17.064zm1.96-32.065h-11.41c-.847-8.229-2.999-15.829-5.731-22.57 11.246-5.304 24.027-7.95 34.39-9.262-9.459 11.714-14.774 24.609-17.249 31.832zm-11.474-40.884c-4.169 1.359-8.326 2.967-12.35 4.882-6.397-10.778-12.896-17.38-13.429-17.913a7.499 7.499 0 0 0-8.315-1.565c-1.337.586-23.021 10.226-45.053 27.664 7.632-39.909 8.51-74.016 8.17-93.172 16.548 13.628 46.541 41.296 70.977 80.104zM241.771 126.132l8.408 10.348a7.499 7.499 0 0 0 11.646-.006l8.403-10.342c15.132 11.958 57.015 46.682 83.13 84.093a458.086 458.086 0 0 1-3.608 49.118c-5.091-13.959-11.34-27.706-18.715-41.14a7.5 7.5 0 0 0-13.149 7.219c13.416 24.436 22.891 49.924 28.209 75.802a148.011 148.011 0 0 0-9.635 10.323c-23.412-30.814-56.909-48.9-71.054-55.573 4.621-12.455 15.922-40.716 31.094-63.683a231.8 231.8 0 0 1 5.737 7.872 7.499 7.499 0 0 0 10.442 1.857 7.499 7.499 0 0 0 1.857-10.443c-7.42-10.63-12.654-16.493-12.873-16.738a7.499 7.499 0 0 0-11.583.508c-10.65 14.2-19.698 31.225-26.581 46.101v-57.633a7.5 7.5 0 0 0-15 0v57.633c-6.883-14.876-15.931-31.901-26.581-46.101a7.499 7.499 0 0 0-11.583-.508c-1.469 1.638-29.474 33.302-48.088 84.462a459.116 459.116 0 0 1-3.597-49.089c26.116-37.405 67.991-72.123 83.121-84.08zm-98.184 69.529c-.339 19.159.542 53.26 8.171 93.158-22.032-17.437-43.716-27.077-45.053-27.664a7.5 7.5 0 0 0-8.315 1.565c-.533.533-7.032 7.135-13.429 17.913-4.024-1.915-8.181-3.522-12.35-4.882 24.392-38.728 54.414-66.434 70.976-80.09zm-65.308 98.405c-2.733 6.741-4.885 14.341-5.732 22.571h-11.41c-2.477-7.227-7.795-20.131-17.262-31.849 10.353 1.308 23.13 3.955 34.404 9.278zm-47.247 69.636h136.792a7.5 7.5 0 0 0 0-15H63.097v-17.064h153.339v17.064h-16.548a7.5 7.5 0 0 0 0 15h16.548v25.081H31.032v-25.081z"/></svg>